<?xml version="1.0" standalone="no"?>
<!DOCTYPE svg PUBLIC "-//W3C//DTD SVG 1.1//EN" "http://www.w3.org/Graphics/SVG/1.1/DTD/svg11.dtd" >
<svg xmlns="http://www.w3.org/2000/svg">
<metadata></metadata>
<defs>
<font id="ocr_a_extendedregular" horiz-adv-x="1237" >
<font-face units-per-em="2048" ascent="1638" descent="-410" />
<missing-glyph horiz-adv-x="500" />
<glyph />
<glyph />
<glyph unicode="&#xd;" />
<glyph unicode=" " />
<glyph unicode="!" d="M500 86v72q1 35 26 60.5t60 25.5h80q35 0 60.5 -25t25.5 -59v-74q0 -35 -24.5 -59.5t-59.5 -24.5h-84q-35 0 -59.5 24.5t-24.5 59.5zM502 1245q-2 34 23.5 59t60.5 25h84q35 0 60.5 -26.5t23.5 -59.5l-41 -651q-3 -36 -27 -60t-57 -24q-37 0 -60.5 25t-25.5 59z" />
<glyph unicode="&#x22;" d="M203 1253v78h848v-78l-84 -452q-15 -72 -86 -72q-70 0 -84 72l-72 360h-195l-73 -362q-17 -72 -84 -72q-73 0 -86 72z" />
<glyph unicode="#" d="M207 594q0 34 24.5 59t59.5 25h84v192h-84q-35 0 -59.5 24.5t-24.5 59.5q0 36 24.5 60t59.5 24h86v207q0 35 24.5 59.5t59.5 24.5q34 0 59 -25t25 -59v-207h168v207q0 35 25 59.5t59 24.5q35 0 60.5 -25t25.5 -59v-207h86q34 0 59 -24.5t25 -59.5q0 -36 -27 -61t-57 -25 h-84v-190h84q33 0 58.5 -25t25.5 -59q0 -33 -23.5 -58.5t-60.5 -25.5h-86v-207q0 -35 -25.5 -60.5t-60.5 -25.5q-34 0 -59 25.5t-25 60.5v207h-168v-207q0 -35 -24.5 -60.5t-59.5 -25.5t-59.5 25.5t-24.5 60.5v207h-86q-35 0 -59.5 24.5t-24.5 59.5zM545 678h168v190h-168 v-190z" />
<glyph unicode="$" d="M205 377q0 35 24.5 59.5t59.5 24.5h594v121h-592q-35 0 -59.5 24t-24.5 60v290q0 35 24.5 59.5t59.5 24.5h252v205q0 34 23.5 59t63.5 25q34 0 58.5 -24.5t24.5 -59.5v-205h258q35 0 60.5 -25t25.5 -59q0 -35 -25.5 -60.5t-60.5 -25.5h-594v-120h592q35 0 60.5 -25 t25.5 -59v-291q0 -34 -25.5 -59t-60.5 -25h-256v-205q0 -35 -25 -59.5t-59 -24.5q-36 0 -61 24.5t-25 59.5v207h-254q-34 0 -59 24.5t-25 59.5z" />
<glyph unicode="%" d="M203 1096v147q0 35 25 60.5t59 25.5h170q35 0 60.5 -25.5t25.5 -60.5v-145q0 -35 -25 -60.5t-59 -25.5h-174q-34 0 -58 25t-24 59zM205 228q0 32 22 61l680 868q21 25 58 25q35 0 60.5 -23t25.5 -59q0 -34 -23 -64l-680 -866q-21 -25 -55 -25q-33 0 -60.5 24.5 t-27.5 58.5zM711 84v147q0 36 24 60t60 24h170q35 0 59.5 -24t24.5 -60v-147q0 -35 -24.5 -59.5t-59.5 -24.5h-172q-35 0 -58.5 24t-23.5 60z" />
<glyph unicode="&#x26;" d="M209 258v117q0 41 33 69l153 131l-155 170q-31 34 -31 78v105q0 104 75 179t179 75h170q104 0 179 -75t75 -179v-113q0 -47 -43 -84l-201 -172l184 -194l86 71q29 25 64 25q34 0 57.5 -25t23.5 -59q0 -35 -26 -58l-88 -77l88 -99q24 -27 24 -61t-24.5 -58t-59.5 -24 t-59 25l-100 104l-129 -111q-12 -16 -47 -16h-174q-105 0 -179.5 75t-74.5 181zM379 254q0 -35 25 -59.5t59 -24.5h137l96 84l-182 197l-135 -115v-82zM379 846l149 -160l191 162v82q0 35 -24.5 60.5t-59.5 25.5h-172q-35 0 -59.5 -25.5t-24.5 -60.5v-84z" />
<glyph unicode="'" d="M463 672v563q0 40 23.5 67t64.5 27h166q35 0 60 -25.5t25 -59.5q0 -11 -3 -21l-168 -578q-20 -63 -82 -63q-37 0 -61.5 26t-24.5 64z" />
<glyph unicode="(" d="M461 485v359q0 106 76 203l202 258q21 26 56 26t61.5 -23t26.5 -64q0 -30 -15 -48l-200 -254q-39 -51 -39 -117v-323q0 -65 39 -115l200 -256q15 -17 15 -48q0 -40 -26 -63t-61 -23q-37 0 -57 26l-202 258q-76 94 -76 204z" />
<glyph unicode=")" d="M387 85q0 30 14 48l201 254q41 50 41 115v325q0 63 -41 115l-201 254q-14 19 -14 47q0 39 26.5 63.5t60.5 24.5q35 0 56 -26l205 -258q74 -93 74 -203v-359q0 -112 -74 -204l-205 -258q-21 -26 -57 -26q-34 0 -60 24t-26 64z" />
<glyph unicode="*" d="M231 377q0 36 25 57l271 230l-269 231q-26 23 -26 60q0 34 25 59.5t59 25.5t61 -24l191 -166v248q0 34 25.5 59t60.5 25q34 0 59 -25t25 -59v-252l196 168q28 23 64 23t59 -25.5t23 -58.5q0 -36 -25 -58l-270 -231l268 -230q25 -22 25 -57t-24 -60t-59 -25q-33 0 -61 23 l-196 168v-252q0 -34 -25 -59t-59 -25q-36 0 -61 25t-25 59v248l-193 -166q-27 -22 -60 -22q-35 0 -59.5 25.5t-24.5 60.5z" />
<glyph unicode="+" d="M203 668q0 34 25 59t59 25h258v258q0 34 25 58t61 24q34 0 58 -24t24 -58v-258h258q35 0 60.5 -24.5t25.5 -59.5t-25.5 -59.5t-60.5 -24.5h-256v-258q0 -36 -25.5 -61t-60.5 -25t-59.5 25t-24.5 61v258h-258q-34 0 -59 24.5t-25 59.5z" />
<glyph unicode="," d="M375 524q0 34 25 59t59 25h340q35 0 59.5 -25t24.5 -61v-436q0 -35 -24.5 -59.5t-59.5 -24.5t-59.5 24.5t-24.5 59.5v352h-256q-35 0 -59.5 25.5t-24.5 60.5z" />
<glyph unicode="-" d="M207 596v74q0 35 24.5 59.5t59.5 24.5h678q32 0 58 -23.5t26 -60.5v-74q0 -35 -24.5 -60.5t-59.5 -25.5h-678q-35 0 -59.5 25.5t-24.5 60.5z" />
<glyph unicode="." d="M457 301v145q0 35 25 59.5t61 24.5h170q34 0 59 -24.5t25 -59.5v-143q0 -35 -24.5 -60.5t-59.5 -25.5h-172q-35 0 -59.5 25t-24.5 59z" />
<glyph unicode="/" d="M227 79q0 31 20 66l682 1158q17 27 53 27q32 0 60.5 -21.5t28.5 -56.5q0 -33 -21 -68l-682 -1159q-16 -26 -51 -26q-33 0 -61.5 22.5t-28.5 57.5z" />
<glyph unicode="0" d="M203 164v1005q0 66 48 114t114 48h524q65 0 112.5 -48t47.5 -114v-1005q0 -67 -47.5 -114.5t-114.5 -47.5h-522q-68 0 -115 47.5t-47 114.5zM371 170h512v991h-512v-991z" />
<glyph unicode="1" d="M201 88q0 34 24.5 58t59.5 24h258v991h-254q-35 0 -59.5 24.5t-24.5 59.5t24.5 59.5t59.5 24.5h422v-1159h168v350q0 34 24.5 59t59.5 25t59.5 -24.5t24.5 -59.5v-434q0 -35 -24.5 -59.5t-59.5 -24.5h-678q-35 0 -59.5 25.5t-24.5 60.5z" />
<glyph unicode="2" d="M199 1245q0 35 24 59.5t60 24.5h600q70 0 120 -49.5t50 -118.5v-409q0 -71 -50 -120.5t-120 -49.5h-510v-412h596q34 0 59 -24.5t25 -59.5t-25 -59.5t-59 -24.5h-764v580q0 70 49.5 120t118.5 50h510v409h-600q-36 0 -60 24.5t-24 59.5z" />
<glyph unicode="3" d="M201 1245q0 35 24.5 59.5t59.5 24.5h600q70 0 119 -49.5t49 -118.5v-315q0 -110 -68 -178q70 -78 70 -170v-328q0 -69 -50 -118.5t-120 -49.5h-594q-35 0 -59.5 24.5t-24.5 59.5t24.5 59.5t59.5 24.5h592v328q0 35 -24.5 60.5t-59.5 25.5h-338q-35 0 -59.5 24t-24.5 60 q0 35 24.5 59.5t59.5 24.5h340q34 0 59 24.5t25 59.5v325h-600q-35 0 -59.5 24.5t-24.5 59.5z" />
<glyph unicode="4" d="M250 436v809q0 35 25.5 60.5t60.5 25.5q34 0 59 -25.5t25 -60.5v-639h336v492q0 35 24.5 60.5t59.5 25.5t59.5 -25.5t24.5 -60.5v-492q35 0 59.5 -24.5t24.5 -59.5t-24.5 -59.5t-59.5 -24.5v-352q0 -35 -25 -59.5t-59 -24.5q-35 0 -59.5 24.5t-24.5 59.5v350h-506z" />
<glyph unicode="5" d="M225 160q0 35 23 59.5t56 24.5q25 0 58 -15l111 -47q20 -12 41 -12h389v412h-508v747h592q34 0 59 -25t25 -59q0 -35 -24.5 -59.5t-59.5 -24.5h-422v-411h338q68 0 118 -50t50 -118v-412q0 -69 -49.5 -118.5t-118.5 -49.5h-389q-52 0 -111 25l-127 53q-51 21 -51 80z" />
<glyph unicode="6" d="M207 86v1159q0 35 25 59.5t61 24.5h84q35 0 59.5 -25t24.5 -59q0 -35 -24.5 -59.5t-59.5 -24.5v-555h592q34 0 59 -25.5t25 -60.5v-434q0 -35 -25.5 -59.5t-60.5 -24.5h-674q-35 0 -60.5 25t-25.5 59zM375 170h508v266h-508v-266z" />
<glyph unicode="7" d="M203 1171v72q0 35 24.5 59.5t59.5 24.5h762v-516q0 -41 -31 -68l-309 -264v-391q0 -35 -24.5 -60.5t-59.5 -25.5t-60.5 25t-25.5 59v424q0 48 30 74l310 262v313h-508q-18 -72 -84 -72q-35 0 -59.5 24.5t-24.5 59.5z" />
<glyph unicode="8" d="M201 172v410q0 69 50 118.5t120 49.5v495q0 35 24 59.5t60 24.5h342q35 0 59.5 -24.5t24.5 -59.5v-495q68 0 118 -48.5t50 -119.5v-412q0 -69 -50 -118.5t-118 -49.5h-510q-71 0 -120.5 52t-49.5 118zM371 170h510v412h-510v-412zM539 750h174v411h-174v-411z" />
<glyph unicode="9" d="M209 811v436q0 34 25 59t59 25h676q34 0 59 -25t25 -59v-1159q0 -35 -24.5 -59.5t-59.5 -24.5h-84q-34 0 -59 24.5t-25 59.5t24.5 59.5t59.5 24.5v555h-592q-34 0 -59 25t-25 59zM377 897h510v264h-510v-264z" />
<glyph unicode=":" d="M461 301v145q0 36 24.5 60t59.5 24h168q35 0 60.5 -24.5t25.5 -59.5v-143q0 -35 -25 -60.5t-59 -25.5h-172q-35 0 -58.5 25t-23.5 59zM461 881v145q0 34 24.5 59t59.5 25h168q36 0 61 -27t25 -57v-145q0 -34 -25.5 -59t-58.5 -25h-172q-35 0 -58.5 24t-23.5 60z" />
<glyph unicode=";" d="M369 524q0 34 24.5 59t59.5 25h340q33 0 58.5 -25.5t25.5 -60.5v-436q0 -35 -25 -59.5t-59 -24.5q-36 0 -61 24.5t-25 59.5v352h-256q-34 0 -58 25.5t-24 60.5zM373 958v144q0 34 25 59t59 25h170q35 0 59.5 -24.5t24.5 -59.5v-144q0 -35 -24.5 -59.5t-59.5 -24.5h-170 q-35 0 -59.5 24.5t-24.5 59.5z" />
<glyph unicode="&#x3c;" d="M207 633v65q0 50 51 80l662 391q27 18 54 18q32 0 57.5 -25t25.5 -61q0 -47 -37 -69l-619 -366l619 -365q37 -24 37 -71q0 -36 -25.5 -61t-57.5 -25q-25 0 -54 18l-662 391q-51 28 -51 80z" />
<glyph unicode="=" d="M203 522q0 35 25 59.5t59 24.5h680q34 0 59 -25t25 -59q0 -35 -24.5 -60.5t-59.5 -25.5h-680q-34 0 -59 25.5t-25 60.5zM203 883q0 34 25 59t59 25h680q35 0 59.5 -24.5t24.5 -59.5t-24.5 -59.5t-59.5 -24.5h-680q-34 0 -59 25t-25 59z" />
<glyph unicode="&#x3e;" d="M229 229q0 48 38 70l618 367l-618 364q-38 24 -38 72q0 37 25.5 61t57.5 24q25 0 55 -18l662 -391q49 -29 49 -80v-65q0 -51 -49 -80l-662 -391q-29 -18 -55 -18q-32 0 -57.5 24t-25.5 61z" />
<glyph unicode="?" d="M229 810q0 41 22 60l516 439q23 19 56 19q31 0 51 -17l172 -150q29 -22 29 -63v-144q0 -38 -23 -57l-485 -418v-104q0 -34 -25 -59t-59 -25q-35 0 -59.5 25t-24.5 59v139q0 45 26 68l480 413v62l-84 76l-447 -383q-30 -26 -62 -26q-31 0 -57 24t-26 62zM397 86 q0 35 24.5 60.5t59.5 25.5t59.5 -25.5t24.5 -60.5t-24.5 -59.5t-59.5 -24.5t-59.5 24.5t-24.5 59.5z" />
<glyph unicode="@" d="M207 1096q0 64 81.5 148.5t192.5 84.5h287q111 0 198 -87.5t87 -207.5v-790q0 -94 -74 -168t-174 -74q-105 0 -172 66q-66 -66 -170 -66q-107 0 -180.5 75t-73.5 167v323q0 104 74.5 179t179.5 75h164q90 0 90 -90v-477q0 -35 24.5 -59.5t59.5 -24.5q34 0 59 24.5 t25 59.5v786q0 46 -37 83.5t-84 37.5h-258q-57 0 -83 -21t-53.5 -72.5t-76.5 -51.5q-39 0 -62.5 24t-23.5 56zM379 254q0 -35 25 -59.5t59 -24.5q35 0 60.5 24.5t25.5 59.5v399h-76q-94 0 -94 -94v-305z" />
<glyph unicode="A" d="M207 86q0 15 5 31l340 1149q20 63 84 63q62 0 78 -53l335 -1167q4 -13 4 -25q0 -35 -24 -59.5t-55 -24.5q-66 0 -84 61l-68 228h-383l-74 -244q-3 -16 -25 -30.5t-48 -14.5q-37 0 -61 25t-24 61zM490 459h283l-139 481z" />
<glyph unicode="B" d="M203 0v1329h514q139 0 237.5 -99t98.5 -239v-71q0 -149 -115 -254q115 -107 115 -254v-74q0 -139 -98.5 -238.5t-237.5 -99.5h-514zM371 754h342q68 0 118 49.5t50 118.5v69q0 70 -49.5 120t-118.5 50h-342v-407zM373 170h340q68 0 118 49.5t50 118.5v70q0 70 -49.5 120 t-118.5 50h-340v-408z" />
<glyph unicode="C" d="M211 664q0 94 37 163l196 371q28 52 87 91.5t114 39.5h332q35 0 59.5 -25t24.5 -59q0 -35 -24.5 -60.5t-59.5 -25.5h-320q-40 0 -65 -47l-186 -348q-22 -41 -22 -97q0 -59 24 -104l178 -342q25 -53 82 -53h303q35 0 60.5 -24.5t25.5 -59.5t-25.5 -59.5t-60.5 -24.5h-314 q-60 0 -124 38t-89 85l-194 375q-39 81 -39 166z" />
<glyph unicode="D" d="M203 84q0 35 24.5 60.5t59.5 25.5h88v989h-86q-35 0 -59.5 25.5t-24.5 60.5q0 34 24.5 59t59.5 25h332q65 -1 126.5 -42t90.5 -99l166 -336q47 -91 47 -190q0 -92 -50 -189l-167 -332q-32 -64 -92 -102.5t-134 -38.5h-321q-35 0 -59.5 25t-24.5 59zM543 168h59 q56 0 84 55l166 330q31 65 31 109q0 55 -25 104l-172 342q-27 51 -88 51h-55v-991z" />
<glyph unicode="E" d="M207 0v1329h762q35 0 60.5 -25.5t25.5 -60.5q0 -34 -25.5 -59t-60.5 -25h-594v-409h256q34 0 59 -25t25 -59q0 -36 -24.5 -61t-59.5 -25h-256v-412h596q34 0 59 -24.5t25 -59.5t-25.5 -59.5t-60.5 -24.5h-762z" />
<glyph unicode="F" d="M207 84v1245h762q33 0 58.5 -25t25.5 -59q0 -35 -25 -60.5t-59 -25.5h-594v-264h426q35 0 59.5 -24.5t24.5 -59.5t-24.5 -59.5t-59.5 -24.5h-426v-643q0 -35 -24.5 -59.5t-59.5 -24.5t-59.5 24.5t-24.5 59.5z" />
<glyph unicode="G" d="M203 252v465q0 125 67 211l248 315q27 36 75.5 61t100.5 25h279q35 0 59.5 -24.5t24.5 -59.5q0 -37 -26.5 -61.5t-57.5 -24.5h-266q-39 0 -68 -37l-236 -303q-30 -36 -30 -100v-465q0 -36 24.5 -61t59.5 -25h342q34 0 59 25t25 59v182h-174q-36 0 -60 24.5t-24 59.5 t24 59.5t60 24.5h342v-350q0 -104 -74 -178t-178 -74h-342q-105 0 -179.5 74t-74.5 178z" />
<glyph unicode="H" d="M203 84v1161q0 34 24.5 59t59.5 25q34 0 59 -25t25 -59v-495h512v495q0 34 24.5 59t59.5 25t59.5 -25t24.5 -61v-1159q0 -34 -25.5 -59t-58.5 -25q-36 0 -60 24.5t-24 59.5v498h-510v-498q0 -34 -25.5 -59t-60.5 -25q-34 0 -59 24.5t-25 59.5z" />
<glyph unicode="I" d="M205 84q0 35 24.5 59.5t59.5 24.5h258v991h-258q-35 0 -59.5 25t-24.5 59q0 36 24.5 61t59.5 25h680q33 0 58.5 -25t25.5 -59q0 -35 -25 -60.5t-59 -25.5h-254v-991h254q35 0 59.5 -24.5t24.5 -59.5t-25 -59.5t-59 -24.5h-680q-35 0 -59.5 24.5t-24.5 59.5z" />
<glyph unicode="J" d="M289 254v266q0 35 24.5 59.5t59.5 24.5t59.5 -24.5t24.5 -59.5v-268q0 -34 25 -58t61 -24h170q35 0 60.5 24.5t25.5 59.5v991q0 35 24 59.5t58 24.5t60 -27t26 -61v-987q0 -106 -77 -180t-177 -74h-170q-105 0 -179.5 75t-74.5 179z" />
<glyph unicode="K" d="M205 84v1159q0 36 24.5 61t59.5 25t59.5 -24.5t24.5 -59.5v-397l538 459q28 23 63 23t59 -26t24 -60q0 -35 -27 -58l-610 -518l610 -527q25 -21 25 -54t-24.5 -60t-60.5 -27q-34 0 -61 23l-536 462v-401q0 -35 -24.5 -59.5t-59.5 -24.5q-34 0 -59 24.5t-25 59.5z" />
<glyph unicode="L" d="M207 0v1245q0 34 25 59t59 25t59 -25t25 -59v-1077h594q35 0 60.5 -24.5t25.5 -59.5t-25.5 -59.5t-60.5 -24.5h-762z" />
<glyph unicode="M" d="M203 84v1245h217l207 -301l213 301h213v-1245q0 -35 -25.5 -59.5t-60.5 -24.5q-34 0 -59 25t-25 59v1010l-170 -240v-47q0 -34 -25 -59t-59 -25q-35 0 -59.5 25t-24.5 59v43l-174 248v-1014q0 -35 -24.5 -59.5t-59.5 -24.5t-59.5 25t-24.5 59z" />
<glyph unicode="N" d="M207 84v1245h223l453 -1030v944q0 35 25.5 60.5t60.5 25.5t59.5 -25t24.5 -61v-1243h-226l-452 1032v-948q0 -35 -24.5 -59.5t-59.5 -24.5t-59.5 24.5t-24.5 59.5z" />
<glyph unicode="O" d="M205 662q0 93 37 167l186 377q63 123 201 123q140 0 200 -123l185 -377q39 -77 39 -167q0 -88 -39 -166l-185 -373q-59 -123 -200 -123q-67 0 -120.5 35t-80.5 88l-186 373q-37 73 -37 166zM375 664q0 -55 24 -105l179 -358q14 -33 51 -33q32 0 49 33l180 358 q25 53 25 105q0 55 -25 104l-176 354q-17 39 -53 39t-56 -39l-174 -354q-24 -53 -24 -104z" />
<glyph unicode="P" d="M207 84v1245h596q103 0 177.5 -75t74.5 -179v-315q0 -104 -74 -178t-178 -74h-426v-424q0 -35 -24.5 -59.5t-59.5 -24.5q-36 0 -61 24.5t-25 59.5zM377 676h426q34 0 59 24.5t25 59.5v315q0 35 -25 59.5t-59 24.5h-426v-483z" />
<glyph unicode="Q" d="M205 207v469q0 88 27 151.5t108 133.5l358 309q72 59 148 59q84 0 145.5 -61t61.5 -131v-514q0 -146 -125 -252l-113 -97l43 -106h113q35 0 59.5 -24.5t24.5 -59.5t-24.5 -59.5t-59.5 -24.5h-230l-61 158l-115 -95q-76 -63 -153 -63q-88 0 -147.5 60.5t-59.5 146.5z M373 217q0 -52 40 -52q16 0 31 13l170 146l-55 147q-12 29 -12 50q0 31 25 55.5t59 24.5q59 0 78 -48l43 -113q73 57 102 94.5t29 88.5v495q0 42 -38 42q-21 0 -36 -13l-358 -309q-47 -41 -62.5 -78t-15.5 -105v-438z" />
<glyph unicode="R" d="M209 84v1245h594q103 0 177.5 -75t74.5 -179v-96q0 -105 -74 -179.5t-178 -74.5h-107l344 -590q16 -26 16 -52q0 -34 -26 -58.5t-59 -24.5q-50 0 -76 45l-395 680h-121v-641q0 -35 -25.5 -59.5t-60.5 -24.5t-59.5 24.5t-24.5 59.5zM377 893h426q35 0 59.5 24.5t24.5 59.5 v98q0 35 -24.5 59.5t-59.5 24.5h-426v-266z" />
<glyph unicode="S" d="M205 219q0 94 88 94q34 0 58 -24.5t24 -57.5q0 -27 18.5 -45t46.5 -18h418q27 0 27 21q0 10 -13 26l-622 797q-44 57 -44 124q0 78 56 135.5t135 57.5h437q80 0 151.5 -67.5t71.5 -163.5q0 -36 -25.5 -61t-56.5 -25q-43 0 -59 19.5t-30.5 72.5t-64.5 53h-415 q-30 0 -30 -19q0 -12 13 -28l623 -797q45 -58 45 -124q0 -75 -54.5 -132t-121.5 -57h-453q-90 0 -156.5 68.5t-66.5 150.5z" />
<glyph unicode="T" d="M205 1100v227h848v-229q0 -35 -25 -59.5t-59 -24.5q-35 0 -60.5 25t-25.5 59v61h-170v-1075q0 -35 -25 -59.5t-59 -24.5q-36 0 -61 24.5t-25 59.5v1075h-170v-59q0 -35 -24.5 -59.5t-59.5 -24.5t-59.5 24.5t-24.5 59.5z" />
<glyph unicode="U" d="M205 252v991q0 35 25 60.5t59 25.5t59 -25t25 -59v-993q0 -33 25 -57.5t59 -24.5h344q35 0 59.5 24t24.5 58v991q0 36 24.5 61t59.5 25t59.5 -25t24.5 -61v-989q0 -104 -74.5 -179t-177.5 -75h-344q-104 0 -178 74t-74 178z" />
<glyph unicode="V" d="M209 934v309q0 36 24.5 61t59.5 25t59.5 -25t24.5 -61v-274l256 -652l256 650v276q0 36 24.5 61t59.5 25t59.5 -25t24.5 -61v-309l-342 -871q-26 -63 -82 -63q-59 0 -84 63z" />
<glyph unicode="W" d="M205 225v1018q0 35 25.5 60.5t60.5 25.5q33 0 57.5 -25.5t24.5 -60.5v-995l49 -80h72l53 84v557q0 35 24.5 59.5t59.5 24.5t59.5 -24.5t24.5 -59.5v-559l49 -82h70l51 84v991q0 35 25.5 60.5t60.5 25.5q34 0 59 -25t25 -59v-1020q0 -19 -21 -53l-78 -129q-24 -43 -73 -43 h-158q-75 0 -96 68q-23 -68 -92 -68h-148q-64 0 -92 47l-72 121q-20 33 -20 57z" />
<glyph unicode="X" d="M219 84q0 24 15 49l313 531l-307 528q-18 31 -18 57q0 32 25 56.5t58 24.5q49 0 72 -40l271 -456l266 454q25 41 71 41q35 0 61 -24t26 -58q0 -23 -13 -45l-315 -536l313 -539q12 -20 12 -43q0 -36 -24.5 -60t-59.5 -24q-49 0 -73 41l-268 457l-267 -457q-23 -40 -71 -40 q-36 0 -61.5 26t-25.5 57z" />
<glyph unicode="Y" d="M209 1065v178q0 36 24.5 61t59.5 25t60.5 -25.5t25.5 -60.5v-115l252 -325l256 323v117q0 35 25 60.5t59 25.5q33 0 58.5 -23.5t25.5 -62.5v-176l-338 -430v-553q0 -35 -25 -59.5t-59 -24.5q-36 0 -61 24.5t-25 59.5v553z" />
<glyph unicode="Z" d="M205 0v111l616 1048h-534q-34 0 -58 25.5t-24 60.5q0 34 24 59t58 25h766v-108l-617 -1053h533q35 0 59.5 -24.5t24.5 -59.5q0 -34 -25 -59t-59 -25h-764z" />
<glyph unicode="[" d="M207 86v1159q0 36 24.5 61t59.5 25h678q34 0 59 -25t25 -59q0 -35 -24.5 -60.5t-59.5 -25.5h-338v-991h338q35 0 59.5 -24.5t24.5 -59.5t-24.5 -59.5t-59.5 -24.5h-678q-34 0 -59 25t-25 59zM375 170h88v991h-88v-991z" />
<glyph unicode="\" d="M229 1252q0 35 28 56.5t61 21.5q37 0 53 -27l680 -1158q22 -36 22 -66q0 -35 -28 -57.5t-61 -22.5q-36 0 -52 26l-682 1159q-21 38 -21 68z" />
<glyph unicode="]" d="M205 1245q0 34 25.5 59t60.5 25h676q35 0 60.5 -24.5t25.5 -59.5v-1159q0 -35 -25 -59.5t-59 -24.5h-678q-35 0 -59.5 25.5t-24.5 60.5q0 34 24.5 58t59.5 24h336v991h-336q-36 0 -61 24.5t-25 59.5zM797 170h88v991h-88v-991z" />
<glyph unicode="^" d="M223 299q0 27 16 57l332 635q26 49 76 49t76 -49l331 -635q17 -30 17 -56q0 -31 -24.5 -55.5t-58.5 -24.5q-46 0 -71 36l-270 403l-269 -403q-26 -36 -72 -36q-34 0 -58.5 24t-24.5 55z" />
<glyph unicode="_" d="M-10 -86h1257v-170h-1257v170z" />
<glyph unicode="`" d="M391 1243q0 33 23 59.5t59 26.5q19 0 37 -8l305 -141q47 -24 47 -76q0 -33 -23 -59.5t-59 -26.5q-19 0 -37 8l-305 141q-47 24 -47 76z" />
<glyph unicode="a" d="M203 254v98q0 105 74.5 179.5t179.5 74.5h329q27 0 78 -12l-2 119q0 35 -24.5 59.5t-59.5 24.5h-319q-34 0 -59 25t-25 59q0 35 24.5 59.5t59.5 24.5h319q104 0 177.5 -73t76.5 -179l21 -629q0 -35 -25 -59.5t-59 -24.5q-36 0 -61 24.5t-25 59.5l-142 -84h-284 q-106 0 -180 74t-74 180zM373 256q0 -34 25 -59t59 -25h237l183 107l-5 71q-1 36 -25 60t-59 24h-331q-35 0 -59.5 -24.5t-24.5 -59.5v-94z" />
<glyph unicode="b" d="M211 84v1161q0 35 25 59.5t59 24.5q35 0 59.5 -24.5t24.5 -59.5v-395l74 59q70 58 145 58h154q85 0 151 -58l80 -69q33 -29 54.5 -83t21.5 -106v-340q0 -46 -20 -97t-46 -75l-73 -69q-28 -27 -80 -48.5t-88 -21.5h-144q-105 0 -229 117v-33q0 -35 -24.5 -59.5 t-59.5 -24.5t-59.5 24.5t-24.5 59.5zM379 381q0 -42 33 -70l135 -114q29 -27 61 -27h137q29 0 50 18l67 60q27 20 27 57v354q0 42 -27 64l-61 51q-28 23 -62 23h-116q-42 0 -64 -19l-151 -129q-29 -26 -29 -78v-190z" />
<glyph unicode="c" d="M209 375v219v9q0 101 88 177l147 127q71 58 152 58h377q35 0 59.5 -24.5t24.5 -59.5q0 -36 -24.5 -60t-59.5 -24h-361q-34 0 -65 -27l-135 -115q-33 -28 -33 -75v-205q0 -33 26 -56l148 -126q28 -25 74 -25h344q34 0 59 -24.5t25 -59.5t-24.5 -59.5t-59.5 -24.5h-359 q-95 0 -162 57l-163 142q-78 65 -78 176z" />
<glyph unicode="d" d="M201 311v342q0 57 24 110.5t56 80.5l69 59q74 64 174 64h121q99 0 180 -70l58 -49v397q0 35 24 59.5t58 24.5q35 0 60.5 -24.5t25.5 -59.5v-1161q0 -35 -25 -59.5t-59 -24.5q-36 0 -60 24.5t-24 59.5v37q-123 -121 -230 -121h-143q-86 0 -172 74l-70 59q-24 23 -45.5 77 t-21.5 101zM373 303q0 -35 33 -63l55 -47q26 -23 55 -23h137q27 0 64 31l133 110q33 29 33 72v182q0 61 -35 90l-137 117q-27 25 -72 25h-117q-37 0 -67 -27l-54 -47q-28 -25 -28 -64v-356z" />
<glyph unicode="e" d="M205 293v385q0 33 25.5 89t64.5 87l70 55q69 56 153 56h236q89 0 168 -74l63 -60q68 -61 68 -182v-203q0 -34 -25 -59t-59 -25h-594v-49q0 -43 37 -73l49 -41q40 -31 76 -31h432q34 0 59 -24.5t25 -59.5q0 -34 -25.5 -59t-58.5 -25h-443q-44 0 -92.5 18.5t-71.5 38.5 l-75 66q-35 28 -58.5 78t-23.5 92zM377 532h510v117q0 47 -29 72l-49 43q-38 31 -68 31h-211q-39 0 -71 -27l-49 -41q-33 -25 -33 -65v-130z" />
<glyph unicode="f" d="M250 881q0 33 22.5 58.5t61.5 25.5h88v65q0 129 88.5 214t220.5 85h197q35 0 59.5 -25t24.5 -61q0 -34 -25 -59t-59 -25h-197q-60 0 -99.5 -36t-39.5 -93v-65h168h3q32 0 56 -24q25 -25 25 -60q0 -34 -25 -59t-59 -25h-170v-713q0 -35 -25 -59.5t-59 -24.5 q-36 0 -61 24.5t-25 59.5v713h-86q-35 0 -59.5 25t-24.5 59z" />
<glyph unicode="g" d="M205 375v278q0 59 22.5 112t53.5 79l69 59q74 64 174 64h121q99 0 180 -70l58 -49l-2 33q0 34 25 59t59 25q35 0 60.5 -24.5t25.5 -59.5v-942q0 -107 -86 -183l-68 -59q-26 -23 -73.5 -40t-88.5 -17h-364q-35 0 -59.5 24t-24.5 60q0 35 24.5 59t59.5 24h364q33 0 62 25 l57 49q29 22 29 58v256q-118 -119 -230 -119h-129q-100 0 -180 69l-63 56q-31 26 -53.5 76t-22.5 98zM373 379q0 -34 33 -64l55 -49q26 -22 55 -22h137q30 0 66 30l133 113q31 27 31 66v127q0 46 -35 75l-137 117q-29 27 -72 27h-113q-37 0 -71 -29l-52 -43q-30 -25 -30 -68 v-280z" />
<glyph unicode="h" d="M205 84v1161q0 34 24.5 58t59.5 24t59.5 -24.5t24.5 -59.5v-424l135 88q92 58 164 58h104q103 0 177 -73.5t77 -178.5l21 -629q1 -35 -24 -59.5t-60 -24.5t-59 25.5t-25 58.5l-21 631q-1 34 -26 59t-60 25h-94q-32 0 -70 -25l-239 -156v-534q0 -35 -24.5 -59.5 t-59.5 -24.5t-59.5 24.5t-24.5 59.5z" />
<glyph unicode="i" d="M289 86q0 34 24.5 59t59.5 25h172v627h-170q-35 0 -59.5 25t-24.5 59q0 35 24.5 60.5t59.5 25.5h256q35 0 59.5 -25.5t24.5 -60.5v-711h168q35 0 60.5 -24.5t25.5 -59.5t-25 -59.5t-59 -24.5h-512q-35 0 -59.5 24.5t-24.5 59.5zM457 1245l2 74q0 35 24.5 59.5t59.5 24.5 h88q35 0 59.5 -24.5t24.5 -59.5v-72q0 -35 -24.5 -60.5t-59.5 -25.5h-90q-36 0 -60.5 26t-23.5 58z" />
<glyph unicode="j" d="M287 -129q0 30 25 55t61 25q38 0 53.5 -17t29 -53t31.5 -55t62 -19h168q35 0 59.5 24.5t24.5 59.5v906h-256q-35 0 -59.5 24t-24.5 60q0 34 24.5 59t59.5 25h342q35 0 59.5 -25.5t24.5 -60.5v-988q0 -103 -74 -177t-178 -74h-178q-102 0 -178 73.5t-76 157.5zM715 1241 v74q1 34 26 59t58 25h90q33 0 58.5 -25.5t25.5 -58.5v-74q0 -34 -24.5 -59t-59.5 -25h-90q-35 0 -59.5 24.5t-24.5 59.5z" />
<glyph unicode="k" d="M207 84v1159q0 36 24.5 61t59.5 25t59.5 -25t24.5 -61v-686l452 385q29 24 63 24q36 0 60 -25.5t24 -60.5q0 -37 -26 -59l-352 -299l434 -381q26 -21 26 -55q0 -33 -24 -59.5t-59 -26.5t-62 23l-448 389l-88 -74v-254q0 -35 -24.5 -59.5t-59.5 -24.5t-59.5 24.5 t-24.5 59.5z" />
<glyph unicode="l" d="M291 1245q0 35 24.5 59.5t59.5 24.5h256q34 0 59 -25t25 -59v-1075h170q34 0 59 -25t25 -59q0 -35 -24.5 -60.5t-59.5 -25.5h-508q-35 0 -59.5 25.5t-24.5 60.5q0 34 24.5 59t59.5 25h168v991h-170q-35 0 -59.5 24.5t-24.5 59.5z" />
<glyph unicode="m" d="M186 84v797q0 35 24.5 59.5t59.5 24.5q65 0 82 -64q70 66 156 66q101 0 166 -86q80 86 176 86q78 0 135.5 -55.5t61.5 -141.5l24 -686q0 -34 -25 -59t-59 -25q-35 0 -60 25t-26 59l-20 659q-2 54 -33 54q-17 0 -35 -15l-100 -84v-614q0 -34 -24.5 -58t-59.5 -24 q-34 0 -59 24.5t-25 59.5v668q0 43 -37 43q-18 0 -33 -13l-121 -102v-598q0 -34 -24 -59t-58 -25q-35 0 -60.5 25t-25.5 59z" />
<glyph unicode="n" d="M207 84v797q0 35 24.5 60.5t59.5 25.5q34 0 59 -25.5t25 -60.5v-56l153 93q77 49 174 49h78q100 0 173 -71t77 -175l23 -637q1 -34 -24 -59t-60 -25q-33 0 -58 22.5t-26 61.5l-25 627q-3 88 -92 88h-82q-38 0 -82 -29l-229 -149v-537q0 -34 -25 -59t-59 -25t-59 25 t-25 59z" />
<glyph unicode="o" d="M205 307v355q0 110 102.5 207.5t222.5 97.5h197h5q110 0 214 -94q106 -96 107 -211v-355q0 -113 -106.5 -209t-219.5 -96h-197q-115 0 -220 97.5t-105 207.5zM375 315q0 -46 33 -73l63 -54q21 -18 59 -18h195q43 0 78 31l51 45q31 24 31 67v340q0 50 -31 74l-59 47 q-30 25 -70 25h-174q-57 0 -88 -27l-57 -49q-31 -26 -31 -68v-340z" />
<glyph unicode="p" d="M207 -276v1198q0 34 25 59t61 25q34 0 59 -25t25 -59v-54q122 136 241 136h39q89 0 164 -66l140 -121q92 -80 92 -203v-262q0 -124 -99 -209l-137 -118q-68 -62 -172 -62h-37q-98 0 -166 68l-65 65v-372q0 -36 -24.5 -61t-59.5 -25t-60.5 25t-25.5 61zM377 375 q0 -39 37 -76l121 -121q45 -45 79 -45h43q31 0 66 31l131 115q33 26 33 71v271q0 40 -37 71l-141 121q-24 21 -52 21h-49q-28 0 -73 -46l-125 -124q-33 -33 -33 -74v-215z" />
<glyph unicode="q" d="M207 303v350q0 121 74 185l61 53q83 76 188 76h123q106 0 232 -119v35q0 35 24.5 59.5t59.5 24.5t59.5 -24.5t24.5 -59.5v-1157q0 -36 -24.5 -61t-59.5 -25t-59.5 25t-24.5 61v395l-64 -53q-83 -68 -176 -68h-113q-99 0 -167 57l-78 66q-35 29 -57.5 80.5t-22.5 99.5z M375 307q0 -34 35 -65l55 -49q28 -23 59 -23h117q44 0 66 18l151 129q27 24 27 78v193q0 34 -35 65l-127 113q-31 31 -68 31h-137q-28 0 -49 -19l-63 -55q-31 -27 -31 -61v-355z" />
<glyph unicode="r" d="M207 84v797q0 35 24.5 60.5t59.5 25.5t59.5 -25t24.5 -61v-105l137 117q85 72 166 72h123q104 0 178 -74t74 -178v-45q0 -36 -24.5 -61t-59.5 -25t-59.5 24.5t-24.5 59.5v47q0 35 -24.5 59.5t-59.5 24.5h-109q-35 0 -78 -37l-239 -207v-469q0 -35 -25 -59.5t-59 -24.5 q-35 0 -59.5 24.5t-24.5 59.5z" />
<glyph unicode="s" d="M205 156q0 33 24.5 58.5t63.5 25.5q32 0 68.5 -36t105.5 -36h313q37 0 62 28.5t25 65.5q0 57 -56 82l-451 203q-65 29 -100 84t-35 112q0 90 62.5 156t154.5 66h385q90 0 159 -53.5t69 -104.5q0 -36 -25.5 -59t-56.5 -23q-40 0 -73 36t-69 36h-380q-56 0 -56 -47 q0 -33 37 -50l447 -198q68 -30 111.5 -96.5t43.5 -147.5q0 -108 -76.5 -183t-173.5 -75h-340q-88 0 -163.5 53t-75.5 103z" />
<glyph unicode="t" d="M205 881q0 35 24.5 59.5t59.5 24.5h88v206q0 35 24.5 59.5t59.5 24.5q33 0 58.5 -25t25.5 -59v-206h338q34 0 59 -25t25 -59q0 -35 -25 -59.5t-59 -24.5h-340v-545q0 -34 25.5 -59t60.5 -25h164q67 0 89 72.5t85 72.5q37 0 60.5 -24.5t23.5 -61.5q0 -76 -71.5 -151.5 t-182.5 -75.5h-168q-104 0 -179 74t-75 178v545h-86q-35 0 -59.5 24t-24.5 60z" />
<glyph unicode="u" d="M211 881q-2 33 23.5 58.5t60.5 25.5q34 0 58.5 -25t25.5 -59l22 -621q3 -90 103 -90h102l283 180v531q0 35 24.5 60.5t59.5 25.5t59.5 -25.5t24.5 -60.5v-797q0 -34 -25 -59t-59 -25t-59 25t-25 59v66l-146 -95q-86 -55 -174 -55h-78q-103 0 -177 72t-79 176z" />
<glyph unicode="v" d="M205 719v162q0 35 24.5 59.5t59.5 24.5t59.5 -24.5t24.5 -59.5v-129l256 -576l254 578v127q0 35 25 59.5t61 24.5q35 0 59.5 -24.5t24.5 -59.5v-160l-291 -662q-28 -59 -74 -59h-108q-59 0 -86 61z" />
<glyph unicode="w" d="M185 881q-1 33 25 58.5t61 25.5q32 0 56.5 -23.5t25.5 -60.5l19 -492l55 -188l117 196v195q0 35 25 59.5t61 24.5q34 0 59 -24.5t25 -59.5v-201l112 -192l58 192l18 490q2 34 26.5 59t57.5 25q35 0 60 -24.5t24 -59.5l-18 -523l-90 -297q-19 -61 -78 -61h-90 q-47 0 -74 47l-92 158l-92 -156q-31 -49 -74 -49h-88q-29 0 -52.5 17t-29.5 40l-88 308z" />
<glyph unicode="x" d="M219 86q0 32 16 51l301 361l-278 331q-19 22 -19 50q0 33 23.5 59.5t60.5 26.5q42 0 68 -31l254 -305l260 307q24 29 60 29q32 0 58 -22.5t26 -57.5q0 -34 -11 -47l-283 -342l297 -359q17 -19 17 -47q0 -38 -25.5 -63.5t-58.5 -25.5q-39 0 -68 34l-272 327l-275 -327 q-27 -35 -67 -35q-36 0 -60 25t-24 61z" />
<glyph unicode="y" d="M205 -276q0 35 24.5 59t59.5 24h180l115 267h-41q-57 0 -82 59l-252 586v162q0 35 24 59.5t58 24.5q35 0 60.5 -24.5t25.5 -59.5v-125l221 -512h59l228 510v129q0 33 25.5 58.5t60.5 25.5q34 0 59 -25t25 -59v-164l-453 -1024q-23 -55 -80 -55h-233q-35 0 -59.5 24 t-24.5 60z" />
<glyph unicode="z" d="M207 84v72q0 36 45 80l584 561h-504q-35 0 -59.5 25t-24.5 61q0 33 25 58.5t59 25.5h639q35 0 59.5 -25.5t24.5 -60.5v-68q0 -40 -29 -68l-596 -577h539q35 0 59.5 -24.5t24.5 -59.5t-24.5 -59.5t-59.5 -24.5h-676q-36 0 -61 24.5t-25 59.5z" />
<glyph unicode="{" d="M209 666q0 35 24.5 59.5t59.5 24.5h168q34 0 60 27t26 63v323q0 65 50 115.5t118 50.5h256q35 0 59.5 -24.5t24.5 -59.5t-24.5 -59.5t-59.5 -24.5h-256v-327q0 -104 -68 -168q68 -62 68 -168v-328h256q35 0 59.5 -24.5t24.5 -59.5q0 -34 -25 -59t-59 -25h-256 q-69 0 -118.5 51t-49.5 117v322q0 35 -26 62.5t-60 27.5h-168q-35 0 -59.5 24t-24.5 60z" />
<glyph unicode="|" d="M535 86v1161q0 35 25 58.5t61 23.5q34 0 59 -23.5t25 -58.5v-1161q0 -35 -25.5 -60.5t-61.5 -25.5q-34 0 -58.5 25.5t-24.5 60.5z" />
<glyph unicode="}" d="M209 86q0 35 24.5 59.5t59.5 24.5h256v328q0 103 67 168q-67 61 -67 165v330h-256q-35 0 -59.5 24.5t-24.5 59.5q0 34 24.5 59t59.5 25h256q68 0 118 -51t50 -117v-323q0 -35 25.5 -61.5t60.5 -26.5h168q35 0 59.5 -24.5t24.5 -59.5q0 -36 -24.5 -61t-59.5 -25h-168 q-36 0 -61 -26.5t-25 -61.5v-324q0 -64 -50.5 -115t-117.5 -51h-256q-35 0 -59.5 24.5t-24.5 59.5z" />
<glyph unicode="~" d="M246 590q0 44 41 69l151 93q19 12 45 12h54q14 0 26 -4l262 -88h15l131 80q23 14 46 14q35 0 60 -27t25 -62q0 -44 -41 -69l-152 -92q-28 -14 -45 -14h-53q-8 0 -27 6l-256 86h-24l-127 -78q-23 -14 -47 -14q-34 0 -59 27t-25 61z" />
<glyph unicode="&#xa0;" />
<glyph unicode="&#xa1;" d="M500 809v72q0 35 24.5 59.5t59.5 24.5h84q35 0 59.5 -24.5t24.5 -59.5v-74q0 -34 -25.5 -59t-60.5 -25h-80q-37 0 -61.5 27t-24.5 59zM502 -279l41 654q3 37 26.5 60.5t59.5 23.5q34 0 58 -25.5t26 -58.5l41 -651q2 -33 -23.5 -59.5t-60.5 -26.5h-84q-36 0 -61 25.5 t-23 57.5z" />
<glyph unicode="&#xa2;" d="M209 375v219q-4 107 88 186l147 127q49 40 103 51v213q0 35 25 58.5t61 23.5q34 0 59 -23.5t25 -58.5v-206h256q35 0 59.5 -24.5t24.5 -59.5q0 -36 -24.5 -60t-59.5 -24h-361q-34 0 -65 -27l-135 -115q-33 -28 -33 -75v-205q0 -33 26 -56l148 -126q28 -25 74 -25h344 q34 0 59 -24.5t25 -59.5t-24.5 -59.5t-59.5 -24.5h-254v-203q0 -35 -25.5 -60.5t-60.5 -25.5t-59.5 25.5t-24.5 60.5v211q-57 15 -97 49l-163 142q-78 65 -78 176z" />
<glyph unicode="&#xa3;" d="M199 86q0 35 24 59.5t60 24.5h106l123 414h-227q-35 0 -59.5 25t-24.5 61q0 34 24.5 59t59.5 25h276l113 376q60 201 270 201q109 0 109 -84q0 -34 -24.5 -60t-59.5 -26h-43q-67 0 -88 -71l-101 -338h226q35 0 60.5 -24.5t25.5 -59.5q0 -34 -25.5 -59t-58.5 -25h-277 l-121 -414h396q35 0 60.5 -24.5t25.5 -59.5q0 -34 -25.5 -59t-60.5 -25h-680q-34 0 -59 25t-25 59z" />
<glyph unicode="&#xa4;" d="M201 215q0 35 25 59l90 91q-45 64 -45 163v113q0 100 45 162l-90 90q-25 25 -25 59q0 35 24.5 59.5t59.5 24.5t59 -24l95 -94q66 47 157 47h115q91 0 158 -47l94 94q25 24 59 24q35 0 59.5 -24.5t24.5 -59.5q0 -34 -24 -59l-90 -90q45 -61 45 -162v-113q0 -99 -45 -163 l90 -91q24 -24 24 -59t-24.5 -59.5t-59.5 -24.5q-34 0 -59 25l-96 96q-64 -47 -156 -47h-115q-87 0 -155 45l-97 -94q-24 -25 -59 -25t-59.5 24.5t-24.5 59.5zM441 549q0 -74 30 -100l58 -50q31 -26 88 -26h74q57 0 88 26l57 50q31 28 31 100v72q0 74 -31 100l-57 49 q-29 27 -88 27h-74q-57 0 -88 -27l-58 -49q-30 -28 -30 -100v-72z" />
<glyph unicode="&#xa5;" d="M203 522q0 35 25 59.5t59 24.5h258v39l-322 547q-18 32 -18 59q0 31 25 56t60 25q49 0 70 -36l271 -458l268 452q22 39 71 39q40 0 62.5 -27t22.5 -62q0 -19 -8 -34l-334 -557v-43h262q35 0 60.5 -25t25.5 -59q0 -35 -25.5 -60.5t-60.5 -25.5h-262v-348 q0 -35 -24.5 -59.5t-59.5 -24.5t-59.5 24.5t-24.5 59.5v348h-258q-34 0 -59 25.5t-25 60.5z" />
<glyph unicode="&#xa6;" d="M535 86v377q0 34 25 58t61 24q34 0 59 -24t25 -58v-377q0 -35 -25.5 -60.5t-61.5 -25.5q-34 0 -58.5 25.5t-24.5 60.5zM535 870v377q0 35 25 58.5t61 23.5q34 0 59 -23.5t25 -58.5v-377q0 -35 -25.5 -60.5t-61.5 -25.5q-34 0 -58.5 25.5t-24.5 60.5z" />
<glyph unicode="&#xa7;" d="M205 -139q0 94 88 94q34 0 58 -24.5t24 -57.5q0 -27 18.5 -45t46.5 -18h408q26 0 26 20q0 13 -12 27l-602 671q-53 67 -53 129q0 77 55.5 133t134.5 56h11l-148 166q-53 66 -53 129q0 76 55.5 132t134.5 56h437q80 0 151.5 -67.5t71.5 -163.5q0 -36 -25.5 -61t-56.5 -25 q-43 0 -59 19.5t-30.5 73.5t-64.5 54h-405q-29 0 -29 -18q0 -15 12 -29l602 -676q54 -59 54 -127q0 -74 -53.5 -130t-120.5 -56h-31l151 -170q54 -59 54 -127q0 -75 -53.5 -130.5t-120.5 -55.5h-453q-90 0 -156.5 69t-66.5 152zM387 657q0 -14 12 -28l299 -336h150 q26 0 26 20q0 13 -12 27l-301 336h-145q-29 0 -29 -19z" />
<glyph unicode="&#xa8;" d="M203 1102v143q0 35 24.5 59.5t59.5 24.5t59.5 -24.5t24.5 -59.5v-143q0 -35 -24.5 -59.5t-59.5 -24.5t-59.5 24.5t-24.5 59.5zM881 1102v143q0 36 24.5 61t59.5 25q34 0 59 -25t25 -61v-143q0 -35 -24.5 -59.5t-59.5 -24.5q-36 0 -60 24.5t-24 59.5z" />
<glyph unicode="&#xa9;" d="M170 303v723q0 106 99.5 204.5t228.5 98.5h241q129 0 228.5 -98.5t99.5 -204.5v-723q0 -106 -99.5 -204.5t-228.5 -98.5h-241q-129 0 -228.5 98.5t-99.5 204.5zM256 307q0 -79 46.5 -127.5t76.5 -71t123 -22.5h233q101 0 135 29.5t72.5 73.5t38.5 118v715q0 80 -46.5 128 t-76.5 70.5t-123 22.5h-233q-101 0 -135 -29.5t-72.5 -73.5t-38.5 -118v-715zM340 666q0 73 27 122l96 179q21 43 72 74.5t100 31.5h162q38 0 61 -21.5t23 -53.5q0 -31 -23 -52.5t-61 -21.5h-168q-15 0 -35 -37l-98 -182q-7 -10 -7 -39q0 -26 11 -45l94 -179q19 -34 35 -34 h166q38 0 61 -22t23 -53q0 -32 -23 -53.5t-61 -21.5h-154q-47 0 -100.5 30.5t-77.5 76.5l-98 186q-25 69 -25 115z" />
<glyph unicode="&#xaa;" d="M203 618v98q0 105 74.5 179.5t179.5 74.5h329q27 0 78 -12l-2 119q0 35 -24.5 59.5t-59.5 24.5h-319q-34 0 -59 25t-25 59q0 35 24.5 59.5t59.5 24.5h319q104 0 177.5 -73t76.5 -179l21 -629q0 -35 -25 -59.5t-59 -24.5q-36 0 -61 24.5t-25 59.5l-142 -84h-284 q-106 0 -180 74t-74 180zM373 620q0 -34 25 -59t59 -25h237l183 107l-5 71q-1 36 -25 60t-59 24h-331q-35 0 -59.5 -24.5t-24.5 -59.5v-94z" />
<glyph unicode="&#xab;" d="M207 575q0 20 8 37l141 306q24 47 76 47q33 0 59.5 -23.5t26.5 -59.5q0 -18 -8 -36l-125 -271l125 -270q8 -18 8 -36q0 -36 -26.5 -59.5t-59.5 -23.5q-54 0 -76 47l-141 306q-8 20 -8 36zM717 575q0 20 8 37l141 306q24 47 76 47q33 0 59.5 -23.5t26.5 -59.5 q0 -18 -8 -36l-125 -271l125 -270q8 -18 8 -36q0 -36 -26.5 -59.5t-59.5 -23.5q-54 0 -76 47l-141 306q-8 20 -8 36z" />
<glyph unicode="&#xac;" d="M193 668q0 35 24 59.5t59 24.5h685q35 0 60.5 -24.5t25.5 -59.5v-340q0 -34 -25.5 -59t-58.5 -25q-36 0 -61 24.5t-25 59.5v256h-601q-35 0 -59 24t-24 60z" />
<glyph unicode="&#xad;" d="M207 596v74q0 35 24.5 59.5t59.5 24.5h678q32 0 58 -23.5t26 -60.5v-74q0 -35 -24.5 -60.5t-59.5 -25.5h-678q-35 0 -59.5 25.5t-24.5 60.5z" />
<glyph unicode="&#xae;" d="M170 303v723q0 106 99.5 204.5t228.5 98.5h241q129 0 228.5 -98.5t99.5 -204.5v-723q0 -106 -99.5 -204.5t-228.5 -98.5h-241q-129 0 -228.5 98.5t-99.5 204.5zM256 307q0 -79 46.5 -127.5t76.5 -71t123 -22.5h233q101 0 135 29.5t72.5 73.5t38.5 118v715q0 80 -46.5 128 t-76.5 70.5t-123 22.5h-233q-101 0 -135 -29.5t-72.5 -73.5t-38.5 -118v-715zM367 330v743h286q104 0 178 -75t74 -179q0 -198 -180 -241l135 -187q23 -31 23 -67q0 -29 -19.5 -48.5t-48.5 -19.5q-39 0 -72 45l-190 266h-37v-237q0 -32 -21.5 -53t-54.5 -21q-32 0 -52.5 21 t-20.5 53zM514 715h139q105 0 105 104q0 48 -29.5 77.5t-75.5 29.5h-139v-211z" />
<glyph unicode="&#xaf;" d="M-10 1415v170h1257v-170h-1257z" />
<glyph unicode="&#xb0;" d="M246 874v150q0 113 104 209t221 96h115q115 0 220.5 -95t105.5 -210v-150q0 -112 -106.5 -208.5t-219.5 -96.5h-115q-115 0 -220 97.5t-105 207.5zM416 883q0 -47 33 -74l63 -53q21 -19 59 -19h113q43 0 78 31l51 45q31 24 31 68v135q0 49 -31 74l-59 47q-30 24 -70 24 h-92q-57 0 -88 -26l-58 -50q-30 -25 -30 -67v-135z" />
<glyph unicode="&#xb1;" d="M193 84q0 35 24.5 59.5t58.5 24.5h685q35 0 60.5 -24.5t25.5 -59.5t-25.5 -59.5t-60.5 -24.5h-685q-34 0 -58.5 24.5t-24.5 59.5zM193 668q0 34 24.5 59t58.5 25h259v258q0 34 25 58t61 24q34 0 57.5 -24t23.5 -58v-258h259q35 0 60.5 -24.5t25.5 -59.5t-25.5 -59.5 t-60.5 -24.5h-256v-258q0 -36 -25.5 -61t-61.5 -25q-34 0 -58.5 25t-24.5 61v258h-259q-34 0 -58.5 24.5t-24.5 59.5z" />
<glyph unicode="&#xb2;" d="M395 768v178q0 52 44 95.5t96 43.5h210v97h-266q-33 0 -53 21t-20 52t20 52.5t53 21.5h275q52 0 95.5 -43.5t43.5 -95.5v-113q0 -52 -43.5 -95.5t-95.5 -43.5h-211v-96h254q33 0 53 -21.5t20 -52.5t-20 -52.5t-53 -21.5h-328q-74 0 -74 74z" />
<glyph unicode="&#xb3;" d="M479 768q0 31 20 52.5t53 21.5h266v96h-114q-34 0 -54 21.5t-20 52.5t20 52t54 21h114v97h-266q-33 0 -53 21t-20 52t20 52.5t53 21.5h275q52 0 95.5 -43.5t43.5 -95.5v-113q0 -37 -25 -65q25 -28 25 -66v-112q0 -52 -43.5 -96t-95.5 -44h-275q-33 0 -53 21.5t-20 52.5z " />
<glyph unicode="&#xb4;" d="M391 1104q0 54 47 76l305 141q18 8 37 8q36 0 59 -26.5t23 -59.5q0 -54 -47 -76l-305 -141q-18 -8 -37 -8q-36 0 -59 26.5t-23 59.5z" />
<glyph unicode="&#xb5;" d="M210 -276v1157q-3 33 22.5 58.5t61.5 25.5q37 0 60.5 -28.5t23.5 -55.5v-621q3 -90 102 -90h127l283 180v531q0 35 24.5 60.5t59.5 25.5t59.5 -25.5t24.5 -60.5v-797q0 -34 -25 -59t-59 -25t-59 25t-25 59v66l-146 -95q-86 -55 -174 -55h-102q-44 0 -90 16v-292 q0 -36 -24.5 -60t-59.5 -24q-37 0 -60.5 28.5t-23.5 55.5z" />
<glyph unicode="&#xb6;" d="M186 760v315q0 104 74.5 179t177.5 75h596v-1245q0 -35 -25 -59.5t-61 -24.5q-35 0 -59.5 24.5t-24.5 59.5v1075h-170v-1075q0 -35 -25 -59.5t-61 -24.5q-35 0 -59.5 24.5t-24.5 59.5v424h-86q-104 0 -178 74t-74 178z" />
<glyph unicode="&#xb8;" d="M375 -276q0 35 24.5 60.5t59.5 25.5h256v190h168v-274q0 -36 -24.5 -61t-59.5 -25h-340q-34 0 -59 25t-25 59z" />
<glyph unicode="&#xb9;" d="M477 768q0 31 20.5 52.5t53.5 21.5h90v340h-90q-33 0 -53.5 21t-20.5 52t20.5 52.5t53.5 21.5h164q74 0 74 -74v-413h90q33 0 53.5 -21.5t20.5 -52.5t-20.5 -52.5t-53.5 -21.5h-328q-33 0 -53.5 21.5t-20.5 52.5z" />
<glyph unicode="&#xba;" d="M205 671v355q0 110 102.5 207.5t222.5 97.5h197q113 2 219.5 -94t106.5 -211v-355q0 -113 -106.5 -209t-219.5 -96h-197q-115 0 -220 97.5t-105 207.5zM375 679q0 -46 33 -73l63 -54q21 -18 59 -18h195q43 0 78 31l51 45q31 24 31 67v340q0 50 -31 74l-59 47 q-30 25 -70 25h-174q-57 0 -88 -27l-57 -49q-31 -26 -31 -68v-340z" />
<glyph unicode="&#xbb;" d="M217 269q0 18 8 36l125 270l-125 271q-8 17 -8 36q0 36 26.5 59.5t59.5 23.5q54 0 76 -47l141 -306q8 -20 8 -37q0 -19 -8 -36l-141 -306q-24 -47 -76 -47q-33 0 -59.5 23.5t-26.5 59.5zM727 269q0 18 8 36l125 270l-125 271q-8 17 -8 36q0 36 26.5 59.5t59.5 23.5 q54 0 76 -47l141 -306q8 -20 8 -37q0 -19 -8 -36l-141 -306q-24 -47 -76 -47q-33 0 -59.5 23.5t-26.5 59.5z" />
<glyph unicode="&#xbc;" d="M20 86q0 28 21 51l1090 1157q23 25 52 25q30 0 53 -23t23 -53q0 -28 -21 -51l-1090 -1157q-23 -25 -52 -25q-30 0 -53 23.5t-23 52.5zM50 768q0 31 20.5 52.5t53.5 21.5h90v340h-90q-33 0 -53.5 21t-20.5 52t20.5 52.5t53.5 21.5h164q74 0 74 -74v-413h90 q33 0 53.5 -21.5t20.5 -52.5t-20.5 -52.5t-53.5 -21.5h-328q-33 0 -53.5 21.5t-20.5 52.5zM709 221v340q0 34 21.5 54t52.5 20t52.5 -20t21.5 -54v-266h190v246q0 33 21.5 53t52.5 20t52.5 -20t21.5 -53v-246h20q34 0 54 -21.5t20 -52.5t-20 -52.5t-54 -21.5h-20v-73 q0 -34 -21.5 -54t-52.5 -20t-52.5 20t-21.5 54v73h-264q-74 0 -74 74z" />
<glyph unicode="&#xbd;" d="M20 86q0 28 21 51l1090 1157q23 25 52 25q30 0 53 -23t23 -53q0 -28 -21 -51l-1090 -1157q-23 -25 -52 -25q-30 0 -53 23.5t-23 52.5zM50 768q0 31 20.5 52.5t53.5 21.5h90v340h-90q-33 0 -53.5 21t-20.5 52t20.5 52.5t53.5 21.5h164q74 0 74 -74v-413h90 q33 0 53.5 -21.5t20.5 -52.5t-20.5 -52.5t-53.5 -21.5h-328q-33 0 -53.5 21.5t-20.5 52.5zM709 74v178q0 52 44 95.5t96 43.5h210v97h-266q-33 0 -53 21t-20 52t20 52.5t53 21.5h275q52 0 95.5 -43.5t43.5 -95.5v-113q0 -52 -43.5 -95.5t-95.5 -43.5h-211v-96h254 q33 0 53 -21.5t20 -52.5t-20 -52.5t-53 -21.5h-328q-74 0 -74 74z" />
<glyph unicode="&#xbe;" d="M20 86q0 28 21 51l1090 1157q23 25 52 25q30 0 53 -23t23 -53q0 -28 -21 -51l-1090 -1157q-23 -25 -52 -25q-30 0 -53 23.5t-23 52.5zM50 768q0 31 20 52.5t53 21.5h266v96h-114q-34 0 -54 21.5t-20 52.5t20 52t54 21h114v97h-266q-33 0 -53 21t-20 52t20 52.5t53 21.5 h275q52 0 95.5 -43.5t43.5 -95.5v-113q0 -37 -25 -65q25 -28 25 -66v-112q0 -52 -43.5 -96t-95.5 -44h-275q-33 0 -53 21.5t-20 52.5zM709 221v340q0 34 21.5 54t52.5 20t52.5 -20t21.5 -54v-266h190v246q0 33 21.5 53t52.5 20t52.5 -20t21.5 -53v-246h20q34 0 54 -21.5 t20 -52.5t-20 -52.5t-54 -21.5h-20v-73q0 -34 -21.5 -54t-52.5 -20t-52.5 20t-21.5 54v73h-264q-74 0 -74 74z" />
<glyph unicode="&#xbf;" d="M184 12q0 38 23 58l485 417v105q0 34 25 59t59 25q35 0 59.5 -25t24.5 -59v-139q0 -45 -26 -68l-480 -414v-61l84 -76l447 383q30 25 62 25q31 0 57 -23.5t26 -61.5q0 -42 -22 -61l-516 -438q-23 -20 -56 -20q-31 0 -51 18l-172 149q-29 23 -29 64v143zM694 881 q0 35 24.5 59.5t59.5 24.5t59.5 -24.5t24.5 -59.5q0 -36 -24.5 -61t-59.5 -25t-59.5 25t-24.5 61z" />
<glyph unicode="&#xc0;" d="M207 86q0 15 5 31l340 1149q20 63 84 63q62 0 78 -53l335 -1167q4 -13 4 -25q0 -35 -24 -59.5t-55 -24.5q-66 0 -84 61l-68 228h-383l-74 -244q-3 -16 -25 -30.5t-48 -14.5q-37 0 -61 25t-24 61zM388 1607q0 33 23 59.5t59 26.5q19 0 37 -8l305 -141q47 -24 47 -76 q0 -33 -23 -59.5t-59 -26.5q-19 0 -37 8l-305 141q-47 24 -47 76zM490 459h283l-139 481z" />
<glyph unicode="&#xc1;" d="M207 86q0 15 5 31l340 1149q20 63 84 63q62 0 78 -53l335 -1167q4 -13 4 -25q0 -35 -24 -59.5t-55 -24.5q-66 0 -84 61l-68 228h-383l-74 -244q-3 -16 -25 -30.5t-48 -14.5q-37 0 -61 25t-24 61zM388 1468q0 54 47 76l305 141q18 8 37 8q36 0 59 -26.5t23 -59.5 q0 -54 -47 -76l-305 -141q-18 -8 -37 -8q-36 0 -59 26.5t-23 59.5zM490 459h283l-139 481z" />
<glyph unicode="&#xc2;" d="M207 86q0 15 5 31l340 1149q20 63 84 63q62 0 78 -53l335 -1167q4 -13 4 -25q0 -35 -24 -59.5t-55 -24.5q-66 0 -84 61l-68 228h-383l-74 -244q-3 -16 -25 -30.5t-48 -14.5q-37 0 -61 25t-24 61zM234 1468q0 54 47 76l306 141q20 8 36 8q20 0 37 -8l306 -141 q47 -24 47 -76q0 -33 -23.5 -59.5t-59.5 -26.5q-18 0 -36 8l-271 125l-270 -125q-17 -8 -36 -8q-36 0 -59.5 26.5t-23.5 59.5zM490 459h283l-139 481z" />
<glyph unicode="&#xc3;" d="M207 86q0 15 5 31l340 1149q20 63 84 63q62 0 78 -53l335 -1167q4 -13 4 -25q0 -35 -24 -59.5t-55 -24.5q-66 0 -84 61l-68 228h-383l-74 -244q-3 -16 -25 -30.5t-48 -14.5q-37 0 -61 25t-24 61zM210 1519q0 44 41 69l151 92q19 12 45 12h54q14 0 26 -4l262 -88h15 l131 80q23 14 46 14q35 0 60 -27t25 -62q0 -44 -41 -69l-152 -92q-28 -14 -45 -14h-53q-8 0 -27 6l-256 86h-24l-127 -78q-23 -14 -47 -14q-34 0 -59 27t-25 62zM490 459h283l-139 481z" />
<glyph unicode="&#xc4;" d="M203 86q0 15 5 31l340 1149q20 63 84 63q62 0 78 -53l335 -1167q4 -13 4 -25q0 -35 -24 -59.5t-55 -24.5q-66 0 -84 61l-68 228h-383l-74 -244q-3 -16 -25 -30.5t-48 -14.5q-37 0 -61 25t-24 61zM204 1466v143q0 35 24.5 59.5t59.5 24.5t59.5 -24.5t24.5 -59.5v-143 q0 -35 -24.5 -59.5t-59.5 -24.5t-59.5 24.5t-24.5 59.5zM486 459h283l-139 481zM882 1466v143q0 36 24.5 61t59.5 25q34 0 59 -25t25 -61v-143q0 -35 -24.5 -59.5t-59.5 -24.5q-36 0 -60 24.5t-24 59.5z" />
<glyph unicode="&#xc5;" d="M207 86q0 15 5 31l340 1149q20 63 84 63q62 0 78 -53l335 -1167q4 -13 4 -25q0 -35 -24 -59.5t-55 -24.5q-66 0 -84 61l-68 228h-383l-74 -244q-3 -16 -25 -30.5t-48 -14.5q-37 0 -61 25t-24 61zM433 1529v74q0 57 51.5 105.5t110.5 48.5h57q58 0 111 -49t53 -105v-74 q0 -56 -53.5 -104.5t-110.5 -48.5h-57q-57 0 -109.5 48t-52.5 105zM490 459h283l-139 481zM544 1542q0 -20 12 -29l24 -19q9 -8 23 -8h43q18 0 47 31q12 4 12 25v49q0 19 -24.5 37t-34.5 18h-37q-19 0 -42 -19.5t-23 -33.5v-51z" />
<glyph unicode="&#xc6;" d="M213 86q0 17 7 35l422 1145q23 63 90 63h248q35 0 59.5 -24.5t24.5 -59.5t-24.5 -59.5t-59.5 -24.5h-170v-411h170q35 0 59.5 -24.5t24.5 -59.5q0 -36 -24.5 -60t-59.5 -24h-172v-412h170q35 0 60.5 -24.5t25.5 -59.5q0 -34 -25.5 -59t-60.5 -25h-254q-36 0 -61 24.5 t-25 59.5v205h-174l-80 -223q-26 -66 -86 -66q-35 0 -60 24t-25 60zM527 461h111v303z" />
<glyph unicode="&#xc7;" d="M211 664q0 94 37 163l196 371q28 52 87 91.5t114 39.5h332q35 0 59.5 -25t24.5 -59q0 -35 -24.5 -60.5t-59.5 -25.5h-320q-40 0 -65 -47l-186 -348q-22 -41 -22 -97q0 -59 24 -104l178 -342q25 -53 82 -53h303q35 0 60.5 -24.5t25.5 -59.5t-25.5 -59.5t-60.5 -24.5h-88 v-274q0 -36 -24.5 -61t-59.5 -25h-340q-34 0 -59 25t-25 59q0 35 24.5 60.5t59.5 25.5h256v190h-58q-60 0 -124 38t-89 85l-194 375q-39 81 -39 166z" />
<glyph unicode="&#xc8;" d="M207 0v1329h762q35 0 60.5 -25.5t25.5 -60.5q0 -34 -25.5 -59t-60.5 -25h-594v-409h256q34 0 59 -25t25 -59q0 -36 -24.5 -61t-59.5 -25h-256v-412h596q34 0 59 -24.5t25 -59.5t-25.5 -59.5t-60.5 -24.5h-762zM383 1607q0 33 23 59.5t59 26.5q19 0 37 -8l305 -141 q47 -24 47 -76q0 -33 -23 -59.5t-59 -26.5q-19 0 -37 8l-305 141q-47 24 -47 76z" />
<glyph unicode="&#xc9;" d="M207 0v1329h762q35 0 60.5 -25.5t25.5 -60.5q0 -34 -25.5 -59t-60.5 -25h-594v-409h256q34 0 59 -25t25 -59q0 -36 -24.5 -61t-59.5 -25h-256v-412h596q34 0 59 -24.5t25 -59.5t-25.5 -59.5t-60.5 -24.5h-762zM383 1468q0 54 47 76l305 141q18 8 37 8q36 0 59 -26.5 t23 -59.5q0 -54 -47 -76l-305 -141q-18 -8 -37 -8q-36 0 -59 26.5t-23 59.5z" />
<glyph unicode="&#xca;" d="M207 0v1329h762q35 0 60.5 -25.5t25.5 -60.5q0 -34 -25.5 -59t-60.5 -25h-594v-409h256q34 0 59 -25t25 -59q0 -36 -24.5 -61t-59.5 -25h-256v-412h596q34 0 59 -24.5t25 -59.5t-25.5 -59.5t-60.5 -24.5h-762zM229 1468q0 54 47 76l306 141q20 8 36 8q20 0 37 -8 l306 -141q47 -24 47 -76q0 -33 -23.5 -59.5t-59.5 -26.5q-18 0 -36 8l-271 125l-270 -125q-17 -8 -36 -8q-36 0 -59.5 26.5t-23.5 59.5z" />
<glyph unicode="&#xcb;" d="M203 1466v143q0 35 24.5 59.5t59.5 24.5t59.5 -24.5t24.5 -59.5v-143q0 -35 -24.5 -59.5t-59.5 -24.5t-59.5 24.5t-24.5 59.5zM207 0v1329h762q35 0 60.5 -25.5t25.5 -60.5q0 -34 -25.5 -59t-60.5 -25h-594v-409h256q34 0 59 -25t25 -59q0 -36 -24.5 -61t-59.5 -25h-256 v-412h596q34 0 59 -24.5t25 -59.5t-25.5 -59.5t-60.5 -24.5h-762zM881 1466v143q0 36 24.5 61t59.5 25q34 0 59 -25t25 -61v-143q0 -35 -24.5 -59.5t-59.5 -24.5q-36 0 -60 24.5t-24 59.5z" />
<glyph unicode="&#xcc;" d="M205 84q0 35 24.5 59.5t59.5 24.5h258v991h-258q-35 0 -59.5 25t-24.5 59q0 36 24.5 61t59.5 25h680q33 0 58.5 -25t25.5 -59q0 -35 -25 -60.5t-59 -25.5h-254v-991h254q35 0 59.5 -24.5t24.5 -59.5t-25 -59.5t-59 -24.5h-680q-35 0 -59.5 24.5t-24.5 59.5zM383 1607 q0 33 23 59.5t59 26.5q19 0 37 -8l305 -141q47 -24 47 -76q0 -33 -23 -59.5t-59 -26.5q-19 0 -37 8l-305 141q-47 24 -47 76z" />
<glyph unicode="&#xcd;" d="M205 84q0 35 24.5 59.5t59.5 24.5h258v991h-258q-35 0 -59.5 25t-24.5 59q0 36 24.5 61t59.5 25h680q33 0 58.5 -25t25.5 -59q0 -35 -25 -60.5t-59 -25.5h-254v-991h254q35 0 59.5 -24.5t24.5 -59.5t-25 -59.5t-59 -24.5h-680q-35 0 -59.5 24.5t-24.5 59.5zM383 1468 q0 54 47 76l305 141q18 8 37 8q36 0 59 -26.5t23 -59.5q0 -54 -47 -76l-305 -141q-18 -8 -37 -8q-36 0 -59 26.5t-23 59.5z" />
<glyph unicode="&#xce;" d="M205 84q0 35 24.5 59.5t59.5 24.5h258v991h-258q-35 0 -59.5 25t-24.5 59q0 36 24.5 61t59.5 25h680q33 0 58.5 -25t25.5 -59q0 -35 -25 -60.5t-59 -25.5h-254v-991h254q35 0 59.5 -24.5t24.5 -59.5t-25 -59.5t-59 -24.5h-680q-35 0 -59.5 24.5t-24.5 59.5zM229 1468 q0 54 47 76l306 141q20 8 36 8q20 0 37 -8l306 -141q47 -24 47 -76q0 -33 -23.5 -59.5t-59.5 -26.5q-18 0 -36 8l-271 125l-270 -125q-17 -8 -36 -8q-36 0 -59.5 26.5t-23.5 59.5z" />
<glyph unicode="&#xcf;" d="M203 1466v143q0 35 24.5 59.5t59.5 24.5t59.5 -24.5t24.5 -59.5v-143q0 -35 -24.5 -59.5t-59.5 -24.5t-59.5 24.5t-24.5 59.5zM205 84q0 35 24.5 59.5t59.5 24.5h258v991h-258q-35 0 -59.5 25t-24.5 59q0 36 24.5 61t59.5 25h680q33 0 58.5 -25t25.5 -59q0 -35 -25 -60.5 t-59 -25.5h-254v-991h254q35 0 59.5 -24.5t24.5 -59.5t-25 -59.5t-59 -24.5h-680q-35 0 -59.5 24.5t-24.5 59.5zM881 1466v143q0 36 24.5 61t59.5 25q34 0 59 -25t25 -61v-143q0 -35 -24.5 -59.5t-59.5 -24.5q-36 0 -60 24.5t-24 59.5z" />
<glyph unicode="&#xd0;" d="M203 84q0 35 24.5 60.5t59.5 25.5h88v414h-88q-34 0 -59 24.5t-25 59.5q0 34 25 59t59 25h88v407h-86q-35 0 -59.5 25.5t-24.5 60.5q0 34 24.5 59t59.5 25h332q65 -1 126.5 -42t90.5 -99l166 -336q47 -91 47 -190q0 -92 -50 -189l-167 -332q-32 -64 -92 -102.5 t-134 -38.5h-321q-35 0 -59.5 25t-24.5 59zM543 168h59q56 0 84 55l166 330q31 65 31 109q0 55 -25 104l-172 342q-27 51 -88 51h-55v-407h84q35 0 60.5 -24.5t25.5 -59.5t-25.5 -59.5t-60.5 -24.5h-84v-416z" />
<glyph unicode="&#xd1;" d="M207 1519q0 44 41 69l151 92q19 12 45 12h54q14 0 26 -4l262 -88h15l131 80q23 14 46 14q35 0 60 -27t25 -62q0 -44 -41 -69l-152 -92q-28 -14 -45 -14h-53q-8 0 -27 6l-256 86h-24l-127 -78q-23 -14 -47 -14q-34 0 -59 27t-25 62zM209 84v1245h223l453 -1030v944 q0 35 25.5 60.5t60.5 25.5t59.5 -25t24.5 -61v-1243h-226l-452 1032v-948q0 -35 -24.5 -59.5t-59.5 -24.5t-59.5 24.5t-24.5 59.5z" />
<glyph unicode="&#xd2;" d="M205 662q0 93 37 167l186 377q63 123 201 123q140 0 200 -123l185 -377q39 -77 39 -167q0 -88 -39 -166l-185 -373q-59 -123 -200 -123q-67 0 -120.5 35t-80.5 88l-186 373q-37 73 -37 166zM375 664q0 -55 24 -105l179 -358q14 -33 51 -33q32 0 49 33l180 358 q25 53 25 105q0 55 -25 104l-176 354q-17 39 -53 39t-56 -39l-174 -354q-24 -53 -24 -104zM383 1607q0 33 23 59.5t59 26.5q19 0 37 -8l305 -141q47 -24 47 -76q0 -33 -23 -59.5t-59 -26.5q-19 0 -37 8l-305 141q-47 24 -47 76z" />
<glyph unicode="&#xd3;" d="M205 662q0 93 37 167l186 377q63 123 201 123q140 0 200 -123l185 -377q39 -77 39 -167q0 -88 -39 -166l-185 -373q-59 -123 -200 -123q-67 0 -120.5 35t-80.5 88l-186 373q-37 73 -37 166zM375 664q0 -55 24 -105l179 -358q14 -33 51 -33q32 0 49 33l180 358 q25 53 25 105q0 55 -25 104l-176 354q-17 39 -53 39t-56 -39l-174 -354q-24 -53 -24 -104zM383 1468q0 54 47 76l305 141q18 8 37 8q36 0 59 -26.5t23 -59.5q0 -54 -47 -76l-305 -141q-18 -8 -37 -8q-36 0 -59 26.5t-23 59.5z" />
<glyph unicode="&#xd4;" d="M205 662q0 93 37 167l186 377q63 123 201 123q140 0 200 -123l185 -377q39 -77 39 -167q0 -88 -39 -166l-185 -373q-59 -123 -200 -123q-67 0 -120.5 35t-80.5 88l-186 373q-37 73 -37 166zM229 1468q0 54 47 76l306 141q20 8 36 8q20 0 37 -8l306 -141q47 -24 47 -76 q0 -33 -23.5 -59.5t-59.5 -26.5q-18 0 -36 8l-271 125l-270 -125q-17 -8 -36 -8q-36 0 -59.5 26.5t-23.5 59.5zM375 664q0 -55 24 -105l179 -358q14 -33 51 -33q32 0 49 33l180 358q25 53 25 105q0 55 -25 104l-176 354q-17 39 -53 39t-56 -39l-174 -354q-24 -53 -24 -104z " />
<glyph unicode="&#xd5;" d="M205 662q0 93 37 167l186 377q63 123 201 123q140 0 200 -123l185 -377q39 -77 39 -167q0 -88 -39 -166l-185 -373q-59 -123 -200 -123q-67 0 -120.5 35t-80.5 88l-186 373q-37 73 -37 166zM205 1519q0 44 41 69l151 92q19 12 45 12h54q14 0 26 -4l262 -88h15l131 80 q23 14 46 14q35 0 60 -27t25 -62q0 -44 -41 -69l-152 -92q-28 -14 -45 -14h-53q-8 0 -27 6l-256 86h-24l-127 -78q-23 -14 -47 -14q-34 0 -59 27t-25 62zM375 664q0 -55 24 -105l179 -358q14 -33 51 -33q32 0 49 33l180 358q25 53 25 105q0 55 -25 104l-176 354 q-17 39 -53 39t-56 -39l-174 -354q-24 -53 -24 -104z" />
<glyph unicode="&#xd6;" d="M203 1466v143q0 35 24.5 59.5t59.5 24.5t59.5 -24.5t24.5 -59.5v-143q0 -35 -24.5 -59.5t-59.5 -24.5t-59.5 24.5t-24.5 59.5zM205 662q0 93 37 167l186 377q63 123 201 123q140 0 200 -123l185 -377q39 -77 39 -167q0 -88 -39 -166l-185 -373q-59 -123 -200 -123 q-67 0 -120.5 35t-80.5 88l-186 373q-37 73 -37 166zM375 664q0 -55 24 -105l179 -358q14 -33 51 -33q32 0 49 33l180 358q25 53 25 105q0 55 -25 104l-176 354q-17 39 -53 39t-56 -39l-174 -354q-24 -53 -24 -104zM881 1466v143q0 36 24.5 61t59.5 25q34 0 59 -25t25 -61 v-143q0 -35 -24.5 -59.5t-59.5 -24.5q-36 0 -60 24.5t-24 59.5z" />
<glyph unicode="&#xd7;" d="M272 382q0 34 24 58l226 228l-226 225q-23 24 -23 57q0 36 25.5 61.5t60.5 25.5t58 -23l225 -228l226 226q25 25 61 25q35 0 59 -25t24 -58q0 -36 -25 -61l-226 -225l226 -226q26 -24 26 -60q0 -34 -25.5 -60t-59.5 -26q-35 0 -60 26l-228 227l-225 -227q-25 -24 -60 -24 q-36 0 -59.5 25t-23.5 59z" />
<glyph unicode="&#xd8;" d="M223 87q0 28 17 56l107 181l-82 168q-42 84 -42 177q0 92 40 171l188 374q26 53 80.5 85t118.5 32q56 0 114.5 -34.5t88.5 -104.5l57 94q27 45 74 45q36 0 60 -25.5t24 -55.5q0 -28 -19 -60l-106 -180l92 -185q35 -71 35 -163q0 -87 -33 -152l-195 -385 q-30 -61 -82.5 -92t-107.5 -31q-70 0 -129 37.5t-84 103.5l-57 -98q-25 -42 -73 -42q-32 0 -59 24.5t-27 59.5zM392 672q0 -74 59 -170l301 512l-55 112q-18 37 -49 37q-33 0 -53 -41l-183 -364q-20 -43 -20 -86zM541 319l51 -106q20 -40 56 -40q30 0 49 38l184 362 q20 39 20 83q0 79 -63 175z" />
<glyph unicode="&#xd9;" d="M205 252v991q0 35 25 60.5t59 25.5t59 -25t25 -59v-993q0 -33 25 -57.5t59 -24.5h344q35 0 59.5 24t24.5 58v991q0 36 24.5 61t59.5 25t59.5 -25t24.5 -61v-989q0 -104 -74.5 -179t-177.5 -75h-344q-104 0 -178 74t-74 178zM383 1607q0 33 23 59.5t59 26.5q19 0 37 -8 l305 -141q47 -24 47 -76q0 -33 -23 -59.5t-59 -26.5q-19 0 -37 8l-305 141q-47 24 -47 76z" />
<glyph unicode="&#xda;" d="M205 252v991q0 35 25 60.5t59 25.5t59 -25t25 -59v-993q0 -33 25 -57.5t59 -24.5h344q35 0 59.5 24t24.5 58v991q0 36 24.5 61t59.5 25t59.5 -25t24.5 -61v-989q0 -104 -74.5 -179t-177.5 -75h-344q-104 0 -178 74t-74 178zM383 1468q0 54 47 76l305 141q18 8 37 8 q36 0 59 -26.5t23 -59.5q0 -54 -47 -76l-305 -141q-18 -8 -37 -8q-36 0 -59 26.5t-23 59.5z" />
<glyph unicode="&#xdb;" d="M205 252v991q0 35 25 60.5t59 25.5t59 -25t25 -59v-993q0 -33 25 -57.5t59 -24.5h344q35 0 59.5 24t24.5 58v991q0 36 24.5 61t59.5 25t59.5 -25t24.5 -61v-989q0 -104 -74.5 -179t-177.5 -75h-344q-104 0 -178 74t-74 178zM229 1468q0 54 47 76l306 141q20 8 36 8 q20 0 37 -8l306 -141q47 -24 47 -76q0 -33 -23.5 -59.5t-59.5 -26.5q-18 0 -36 8l-271 125l-270 -125q-17 -8 -36 -8q-36 0 -59.5 26.5t-23.5 59.5z" />
<glyph unicode="&#xdc;" d="M203 1466v143q0 35 24.5 59.5t59.5 24.5t59.5 -24.5t24.5 -59.5v-143q0 -35 -24.5 -59.5t-59.5 -24.5t-59.5 24.5t-24.5 59.5zM205 252v991q0 35 25 60.5t59 25.5t59 -25t25 -59v-993q0 -33 25 -57.5t59 -24.5h344q35 0 59.5 24t24.5 58v991q0 36 24.5 61t59.5 25 t59.5 -25t24.5 -61v-989q0 -104 -74.5 -179t-177.5 -75h-344q-104 0 -178 74t-74 178zM881 1466v143q0 36 24.5 61t59.5 25q34 0 59 -25t25 -61v-143q0 -35 -24.5 -59.5t-59.5 -24.5q-36 0 -60 24.5t-24 59.5z" />
<glyph unicode="&#xdd;" d="M209 1065v178q0 36 24.5 61t59.5 25t60.5 -25.5t25.5 -60.5v-115l252 -325l256 323v117q0 35 25 60.5t59 25.5q33 0 58.5 -23.5t25.5 -62.5v-176l-338 -430v-553q0 -35 -25 -59.5t-59 -24.5q-36 0 -61 24.5t-25 59.5v553zM506 1468q0 54 47 76l305 141q18 8 37 8 q36 0 59 -26.5t23 -59.5q0 -54 -47 -76l-305 -141q-18 -8 -37 -8q-36 0 -59 26.5t-23 59.5z" />
<glyph unicode="&#xde;" d="M207 84v1161q0 35 25 59.5t61 24.5q35 0 59.5 -24.5t24.5 -59.5v-280h426q103 0 177.5 -75t74.5 -179v-146q0 -104 -74 -178t-178 -74h-426v-229q0 -35 -24.5 -59.5t-59.5 -24.5q-36 0 -61 24.5t-25 59.5zM377 481h426q34 0 59 25t25 59v146q0 34 -25 59t-59 25h-426 v-314z" />
<glyph unicode="&#xdf;" d="M205 84v942q0 101 59.5 161.5t117 101t148.5 40.5h197q113 2 219.5 -94t106.5 -211q0 -90 -38.5 -131.5t-140.5 -93.5l-100 -51q-66 -34 -66 -49q0 -6 35 -37l177 -158q81 -73 107 -128.5t26 -117.5q0 -108 -77 -183t-173 -75h-53q-89 0 -164.5 53t-75.5 103 q0 33 25 58.5t63 25.5q32 0 68.5 -36t105.5 -36h27q37 0 60 28t23 68q0 51 -32 80l-197 180q-80 74 -101.5 102.5t-21.5 73.5q0 81 101 134l162 84q59 31 75.5 46t16.5 45q0 56 -31 81l-59 47q-30 24 -70 24h-174q-57 0 -88 -26l-57 -50q-31 -25 -31 -67v-934q0 -34 -25 -59 t-59 -25t-60 25.5t-26 58.5z" />
<glyph unicode="&#xe0;" d="M203 254v98q0 105 74.5 179.5t179.5 74.5h329q27 0 78 -12l-2 119q0 35 -24.5 59.5t-59.5 24.5h-319q-34 0 -59 25t-25 59q0 35 24.5 59.5t59.5 24.5h319q104 0 177.5 -73t76.5 -179l21 -629q0 -35 -25 -59.5t-59 -24.5q-36 0 -61 24.5t-25 59.5l-142 -84h-284 q-106 0 -180 74t-74 180zM373 256q0 -34 25 -59t59 -25h237l183 107l-5 71q-1 36 -25 60t-59 24h-331q-35 0 -59.5 -24.5t-24.5 -59.5v-94zM383 1243q0 33 23 59.5t59 26.5q19 0 37 -8l305 -141q47 -24 47 -76q0 -33 -23 -59.5t-59 -26.5q-19 0 -37 8l-305 141 q-47 24 -47 76z" />
<glyph unicode="&#xe1;" d="M203 254v98q0 105 74.5 179.5t179.5 74.5h329q27 0 78 -12l-2 119q0 35 -24.5 59.5t-59.5 24.5h-319q-34 0 -59 25t-25 59q0 35 24.5 59.5t59.5 24.5h319q104 0 177.5 -73t76.5 -179l21 -629q0 -35 -25 -59.5t-59 -24.5q-36 0 -61 24.5t-25 59.5l-142 -84h-284 q-106 0 -180 74t-74 180zM373 256q0 -34 25 -59t59 -25h237l183 107l-5 71q-1 36 -25 60t-59 24h-331q-35 0 -59.5 -24.5t-24.5 -59.5v-94zM383 1104q0 54 47 76l305 141q18 8 37 8q36 0 59 -26.5t23 -59.5q0 -54 -47 -76l-305 -141q-18 -8 -37 -8q-36 0 -59 26.5t-23 59.5z " />
<glyph unicode="&#xe2;" d="M203 254v98q0 105 74.5 179.5t179.5 74.5h329q27 0 78 -12l-2 119q0 35 -24.5 59.5t-59.5 24.5h-319q-34 0 -59 25t-25 59q0 35 24.5 59.5t59.5 24.5h319q104 0 177.5 -73t76.5 -179l21 -629q0 -35 -25 -59.5t-59 -24.5q-36 0 -61 24.5t-25 59.5l-142 -84h-284 q-106 0 -180 74t-74 180zM229 1104q0 54 47 76l306 141q20 8 36 8q20 0 37 -8l306 -141q47 -24 47 -76q0 -33 -23.5 -59.5t-59.5 -26.5q-18 0 -36 8l-271 125l-270 -125q-17 -8 -36 -8q-36 0 -59.5 26.5t-23.5 59.5zM373 256q0 -34 25 -59t59 -25h237l183 107l-5 71 q-1 36 -25 60t-59 24h-331q-35 0 -59.5 -24.5t-24.5 -59.5v-94z" />
<glyph unicode="&#xe3;" d="M203 254v98q0 105 74.5 179.5t179.5 74.5h329q27 0 78 -12l-2 119q0 35 -24.5 59.5t-59.5 24.5h-319q-34 0 -59 25t-25 59q0 35 24.5 59.5t59.5 24.5h319q104 0 177.5 -73t76.5 -179l21 -629q0 -35 -25 -59.5t-59 -24.5q-36 0 -61 24.5t-25 59.5l-142 -84h-284 q-106 0 -180 74t-74 180zM205 1154q0 44 41 69l151 92q19 12 45 12h54q14 0 26 -4l262 -88h15l131 80q23 14 46 14q35 0 60 -27t25 -62q0 -44 -41 -69l-152 -92q-28 -14 -45 -14h-53q-8 0 -27 6l-256 86h-24l-127 -78q-23 -14 -47 -14q-34 0 -59 27t-25 62zM373 256 q0 -34 25 -59t59 -25h237l183 107l-5 71q-1 36 -25 60t-59 24h-331q-35 0 -59.5 -24.5t-24.5 -59.5v-94z" />
<glyph unicode="&#xe4;" d="M203 254v98q0 105 74.5 179.5t179.5 74.5h329q27 0 78 -12l-2 119q0 35 -24.5 59.5t-59.5 24.5h-319q-34 0 -59 25t-25 59q0 35 24.5 59.5t59.5 24.5h319q104 0 177.5 -73t76.5 -179l21 -629q0 -35 -25 -59.5t-59 -24.5q-36 0 -61 24.5t-25 59.5l-142 -84h-284 q-106 0 -180 74t-74 180zM203 1102v143q0 35 24.5 59.5t59.5 24.5t59.5 -24.5t24.5 -59.5v-143q0 -35 -24.5 -59.5t-59.5 -24.5t-59.5 24.5t-24.5 59.5zM373 256q0 -34 25 -59t59 -25h237l183 107l-5 71q-1 36 -25 60t-59 24h-331q-35 0 -59.5 -24.5t-24.5 -59.5v-94z M881 1102v143q0 36 24.5 61t59.5 25q34 0 59 -25t25 -61v-143q0 -35 -24.5 -59.5t-59.5 -24.5q-36 0 -60 24.5t-24 59.5z" />
<glyph unicode="&#xe5;" d="M203 254v98q0 105 74.5 179.5t179.5 74.5h329q27 0 78 -12l-2 119q0 35 -24.5 59.5t-59.5 24.5h-319q-34 0 -59 25t-25 59q0 35 24.5 59.5t59.5 24.5h319q104 0 177.5 -73t76.5 -179l21 -629q0 -35 -25 -59.5t-59 -24.5q-36 0 -61 24.5t-25 59.5l-142 -84h-284 q-106 0 -180 74t-74 180zM373 256q0 -34 25 -59t59 -25h237l183 107l-5 71q-1 36 -25 60t-59 24h-331q-35 0 -59.5 -24.5t-24.5 -59.5v-94zM428 1165v74q0 57 51.5 105.5t110.5 48.5h57q58 0 111 -49t53 -105v-74q0 -56 -53.5 -104.5t-110.5 -48.5h-57q-57 0 -109.5 48 t-52.5 105zM539 1178q0 -20 12 -29l24 -19q9 -8 23 -8h43q18 0 47 31q12 4 12 25v49q0 19 -24.5 37t-34.5 18h-37q-19 0 -42 -19.5t-23 -33.5v-51z" />
<glyph unicode="&#xe6;" d="M76 254v98q0 105 74.5 179.5t179.5 74.5h119q25 0 75 -12v119q0 35 -24.5 59.5t-59.5 24.5h-108q-34 0 -59 25t-25 59q0 35 24.5 59.5t59.5 24.5h108q118 0 197 -95q105 95 201 95h24q89 0 168 -74l64 -60q67 -61 67 -182v-203q0 -34 -24.5 -59t-59.5 -25h-383v-49 q0 -43 37 -73l49 -41q40 -31 76 -31h221q34 0 59 -24.5t25 -59.5q0 -34 -25 -59t-59 -25h-231q-45 0 -93 18.5t-71 38.5l-74 64l-205 -121h-73q-106 0 -180 74t-74 180zM246 256q0 -34 25 -59t59 -25h26l168 98v119q-24 45 -73 45h-121q-35 0 -59.5 -24.5t-24.5 -59.5v-94z M696 532h299v117q0 47 -28 72l-49 43q-38 31 -68 31q-40 0 -72 -27l-49 -41q-33 -25 -33 -65v-130z" />
<glyph unicode="&#xe7;" d="M209 375v219q-4 107 88 186l147 127q71 58 152 58h377q35 0 59.5 -24.5t24.5 -59.5q0 -36 -24.5 -60t-59.5 -24h-361q-34 0 -65 -27l-135 -115q-33 -28 -33 -75v-205q0 -33 26 -56l148 -126q28 -25 74 -25h344q34 0 59 -24.5t25 -59.5t-24.5 -59.5t-59.5 -24.5h-84v-274 q0 -36 -24.5 -61t-59.5 -25h-340q-34 0 -59 25t-25 59q0 35 24.5 60.5t59.5 25.5h256v190h-107q-95 0 -162 57l-163 142q-78 65 -78 176z" />
<glyph unicode="&#xe8;" d="M205 293v385q0 33 25.5 89t64.5 87l70 55q69 56 153 56h236q89 0 168 -74l63 -60q68 -61 68 -182v-203q0 -34 -25 -59t-59 -25h-594v-49q0 -43 37 -73l49 -41q40 -31 76 -31h432q34 0 59 -24.5t25 -59.5q0 -34 -25.5 -59t-58.5 -25h-443q-44 0 -92.5 18.5t-71.5 38.5 l-75 66q-35 28 -58.5 78t-23.5 92zM377 532h510v117q0 47 -29 72l-49 43q-38 31 -68 31h-211q-39 0 -71 -27l-49 -41q-33 -25 -33 -65v-130zM383 1243q0 33 23 59.5t59 26.5q19 0 37 -8l305 -141q47 -24 47 -76q0 -33 -23 -59.5t-59 -26.5q-19 0 -37 8l-305 141 q-47 24 -47 76z" />
<glyph unicode="&#xe9;" d="M205 293v385q0 33 25.5 89t64.5 87l70 55q69 56 153 56h236q89 0 168 -74l63 -60q68 -61 68 -182v-203q0 -34 -25 -59t-59 -25h-594v-49q0 -43 37 -73l49 -41q40 -31 76 -31h432q34 0 59 -24.5t25 -59.5q0 -34 -25.5 -59t-58.5 -25h-443q-44 0 -92.5 18.5t-71.5 38.5 l-75 66q-35 28 -58.5 78t-23.5 92zM377 532h510v117q0 47 -29 72l-49 43q-38 31 -68 31h-211q-39 0 -71 -27l-49 -41q-33 -25 -33 -65v-130zM506 1104q0 54 47 76l305 141q18 8 37 8q36 0 59 -26.5t23 -59.5q0 -54 -47 -76l-305 -141q-18 -8 -37 -8q-36 0 -59 26.5t-23 59.5 z" />
<glyph unicode="&#xea;" d="M205 293v385q0 33 25.5 89t64.5 87l70 55q69 56 153 56h236q89 0 168 -74l63 -60q68 -61 68 -182v-203q0 -34 -25 -59t-59 -25h-594v-49q0 -43 37 -73l49 -41q40 -31 76 -31h432q34 0 59 -24.5t25 -59.5q0 -34 -25.5 -59t-58.5 -25h-443q-44 0 -92.5 18.5t-71.5 38.5 l-75 66q-35 28 -58.5 78t-23.5 92zM229 1104q0 54 47 76l306 141q20 8 36 8q20 0 37 -8l306 -141q47 -24 47 -76q0 -33 -23.5 -59.5t-59.5 -26.5q-18 0 -36 8l-271 125l-270 -125q-17 -8 -36 -8q-36 0 -59.5 26.5t-23.5 59.5zM377 532h510v117q0 47 -29 72l-49 43 q-38 31 -68 31h-211q-39 0 -71 -27l-49 -41q-33 -25 -33 -65v-130z" />
<glyph unicode="&#xeb;" d="M203 1102v143q0 35 24.5 59.5t59.5 24.5t59.5 -24.5t24.5 -59.5v-143q0 -35 -24.5 -59.5t-59.5 -24.5t-59.5 24.5t-24.5 59.5zM205 293v385q0 33 25.5 89t64.5 87l70 55q69 56 153 56h236q89 0 168 -74l63 -60q68 -61 68 -182v-203q0 -34 -25 -59t-59 -25h-594v-49 q0 -43 37 -73l49 -41q40 -31 76 -31h432q34 0 59 -24.5t25 -59.5q0 -34 -25.5 -59t-58.5 -25h-443q-44 0 -92.5 18.5t-71.5 38.5l-75 66q-35 28 -58.5 78t-23.5 92zM377 532h510v117q0 47 -29 72l-49 43q-38 31 -68 31h-211q-39 0 -71 -27l-49 -41q-33 -25 -33 -65v-130z M881 1102v143q0 36 24.5 61t59.5 25q34 0 59 -25t25 -61v-143q0 -35 -24.5 -59.5t-59.5 -24.5q-36 0 -60 24.5t-24 59.5z" />
<glyph unicode="&#xec;" d="M268 1243q0 33 23 59.5t59 26.5q19 0 37 -8l305 -141q47 -24 47 -76q0 -33 -23 -59.5t-59 -26.5q-19 0 -37 8l-305 141q-47 24 -47 76zM297 86q0 34 24.5 59t59.5 25h172v627h-170q-35 0 -59.5 25t-24.5 59q0 35 24.5 60.5t59.5 25.5h256q35 0 59.5 -25.5t24.5 -60.5 v-711h168q35 0 60.5 -24.5t25.5 -59.5t-25 -59.5t-59 -24.5h-512q-35 0 -59.5 24.5t-24.5 59.5z" />
<glyph unicode="&#xed;" d="M289 86q0 34 24.5 59t59.5 25h172v627h-170q-35 0 -59.5 25t-24.5 59q0 35 24.5 60.5t59.5 25.5h256q35 0 59.5 -25.5t24.5 -60.5v-711h168q35 0 60.5 -24.5t25.5 -59.5t-25 -59.5t-59 -24.5h-512q-35 0 -59.5 24.5t-24.5 59.5zM506 1104q0 54 47 76l305 141q18 8 37 8 q36 0 59 -26.5t23 -59.5q0 -54 -47 -76l-305 -141q-18 -8 -37 -8q-36 0 -59 26.5t-23 59.5z" />
<glyph unicode="&#xee;" d="M145 1104q0 54 47 76l306 141q20 8 36 8q20 0 37 -8l306 -141q47 -24 47 -76q0 -33 -23.5 -59.5t-59.5 -26.5q-18 0 -36 8l-271 125l-270 -125q-17 -8 -36 -8q-36 0 -59.5 26.5t-23.5 59.5zM297 86q0 34 24.5 59t59.5 25h172v627h-170q-35 0 -59.5 25t-24.5 59 q0 35 24.5 60.5t59.5 25.5h256q35 0 59.5 -25.5t24.5 -60.5v-711h168q35 0 60.5 -24.5t25.5 -59.5t-25 -59.5t-59 -24.5h-512q-35 0 -59.5 24.5t-24.5 59.5z" />
<glyph unicode="&#xef;" d="M100 1102v143q0 35 24.5 59.5t59.5 24.5t59.5 -24.5t24.5 -59.5v-143q0 -35 -24.5 -59.5t-59.5 -24.5t-59.5 24.5t-24.5 59.5zM289 86q0 34 24.5 59t59.5 25h172v627h-170q-35 0 -59.5 25t-24.5 59q0 35 24.5 60.5t59.5 25.5h256q35 0 59.5 -25.5t24.5 -60.5v-711h168 q35 0 60.5 -24.5t25.5 -59.5t-25 -59.5t-59 -24.5h-512q-35 0 -59.5 24.5t-24.5 59.5zM778 1102v143q0 36 24.5 61t59.5 25q34 0 59 -25t25 -61v-143q0 -35 -24.5 -59.5t-59.5 -24.5q-36 0 -60 24.5t-24 59.5z" />
<glyph unicode="&#xf0;" d="M205 899q0 35 24 59l113 113l-113 115q-24 24 -24 59t24.5 59.5t59.5 24.5q28 0 42 -10.5t72 -69t58 -59.5l114 115q25 24 60 24q34 0 59 -24.5t25 -59.5q0 -28 -10.5 -42t-69 -72t-60.5 -58l410 -409q68 -68 68 -172v-185q0 -113 -106.5 -209t-219.5 -96h-197 q-115 0 -220 97.5t-105 207.5v185q0 110 102.5 207.5t222.5 97.5h84l-157 157l-42 -43l-69 -70q-26 -26 -61 -26t-59.5 24.5t-24.5 59.5zM379 315q0 -46 33 -73l63 -54q21 -18 59 -18h195q43 0 78 31l51 45q31 24 31 67v170q0 50 -31 74l-59 47q-30 25 -70 25h-174 q-57 0 -88 -27l-57 -49q-31 -26 -31 -68v-170z" />
<glyph unicode="&#xf1;" d="M207 1154q0 44 41 69l151 92q19 12 45 12h54q14 0 26 -4l262 -88h15l131 80q23 14 46 14q35 0 60 -27t25 -62q0 -44 -41 -69l-152 -92q-28 -14 -45 -14h-53q-8 0 -27 6l-256 86h-24l-127 -78q-23 -14 -47 -14q-34 0 -59 27t-25 62zM209 84v797q0 35 24.5 60.5t59.5 25.5 q34 0 59 -25.5t25 -60.5v-56l153 93q77 49 174 49h78q100 0 173 -71t77 -175l23 -637q1 -34 -24 -59t-60 -25q-33 0 -58 22.5t-26 61.5l-25 627q-3 88 -92 88h-82q-38 0 -82 -29l-229 -149v-537q0 -34 -25 -59t-59 -25t-59 25t-25 59z" />
<glyph unicode="&#xf2;" d="M205 307v355q0 110 102.5 207.5t222.5 97.5h197q113 2 219.5 -94t106.5 -211v-355q0 -113 -106.5 -209t-219.5 -96h-197q-115 0 -220 97.5t-105 207.5zM375 315q0 -46 33 -73l63 -54q21 -18 59 -18h195q43 0 78 31l51 45q31 24 31 67v340q0 50 -31 74l-59 47 q-30 25 -70 25h-174q-57 0 -88 -27l-57 -49q-31 -26 -31 -68v-340zM383 1243q0 33 23 59.5t59 26.5q19 0 37 -8l305 -141q47 -24 47 -76q0 -33 -23 -59.5t-59 -26.5q-19 0 -37 8l-305 141q-47 24 -47 76z" />
<glyph unicode="&#xf3;" d="M205 307v355q0 110 102.5 207.5t222.5 97.5h197q113 2 219.5 -94t106.5 -211v-355q0 -113 -106.5 -209t-219.5 -96h-197q-115 0 -220 97.5t-105 207.5zM375 315q0 -46 33 -73l63 -54q21 -18 59 -18h195q43 0 78 31l51 45q31 24 31 67v340q0 50 -31 74l-59 47 q-30 25 -70 25h-174q-57 0 -88 -27l-57 -49q-31 -26 -31 -68v-340zM506 1104q0 54 47 76l305 141q18 8 37 8q36 0 59 -26.5t23 -59.5q0 -54 -47 -76l-305 -141q-18 -8 -37 -8q-36 0 -59 26.5t-23 59.5z" />
<glyph unicode="&#xf4;" d="M205 307v355q0 110 102.5 207.5t222.5 97.5h197q113 2 219.5 -94t106.5 -211v-355q0 -113 -106.5 -209t-219.5 -96h-197q-115 0 -220 97.5t-105 207.5zM229 1104q0 54 47 76l306 141q20 8 36 8q20 0 37 -8l306 -141q47 -24 47 -76q0 -33 -23.5 -59.5t-59.5 -26.5 q-18 0 -36 8l-271 125l-270 -125q-17 -8 -36 -8q-36 0 -59.5 26.5t-23.5 59.5zM375 315q0 -46 33 -73l63 -54q21 -18 59 -18h195q43 0 78 31l51 45q31 24 31 67v340q0 50 -31 74l-59 47q-30 25 -70 25h-174q-57 0 -88 -27l-57 -49q-31 -26 -31 -68v-340z" />
<glyph unicode="&#xf5;" d="M205 307v355q0 110 102.5 207.5t222.5 97.5h197q113 2 219.5 -94t106.5 -211v-355q0 -113 -106.5 -209t-219.5 -96h-197q-115 0 -220 97.5t-105 207.5zM205 1154q0 44 41 69l151 92q19 12 45 12h54q14 0 26 -4l262 -88h15l131 80q23 14 46 14q35 0 60 -27t25 -62 q0 -44 -41 -69l-152 -92q-28 -14 -45 -14h-53q-8 0 -27 6l-256 86h-24l-127 -78q-23 -14 -47 -14q-34 0 -59 27t-25 62zM375 315q0 -46 33 -73l63 -54q21 -18 59 -18h195q43 0 78 31l51 45q31 24 31 67v340q0 50 -31 74l-59 47q-30 25 -70 25h-174q-57 0 -88 -27l-57 -49 q-31 -26 -31 -68v-340z" />
<glyph unicode="&#xf6;" d="M203 1102v143q0 35 24.5 59.5t59.5 24.5t59.5 -24.5t24.5 -59.5v-143q0 -35 -24.5 -59.5t-59.5 -24.5t-59.5 24.5t-24.5 59.5zM205 307v355q0 110 102.5 207.5t222.5 97.5h197q113 2 219.5 -94t106.5 -211v-355q0 -113 -106.5 -209t-219.5 -96h-197q-115 0 -220 97.5 t-105 207.5zM375 315q0 -46 33 -73l63 -54q21 -18 59 -18h195q43 0 78 31l51 45q31 24 31 67v340q0 50 -31 74l-59 47q-30 25 -70 25h-174q-57 0 -88 -27l-57 -49q-31 -26 -31 -68v-340zM881 1102v143q0 36 24.5 61t59.5 25q34 0 59 -25t25 -61v-143q0 -35 -24.5 -59.5 t-59.5 -24.5q-36 0 -60 24.5t-24 59.5z" />
<glyph unicode="&#xf7;" d="M193 668q0 34 24.5 59t58.5 25h685q35 0 60.5 -24.5t25.5 -59.5t-25.5 -59.5t-60.5 -24.5h-685q-34 0 -58.5 24.5t-24.5 59.5zM535 328q0 35 24.5 60.5t58.5 25.5q35 0 59.5 -25.5t24.5 -60.5q0 -34 -25 -59t-59 -25q-33 0 -58 25t-25 59zM535 1006q0 35 24.5 60.5 t58.5 25.5q35 0 59.5 -25.5t24.5 -60.5q0 -34 -25 -59t-59 -25q-33 0 -58 25t-25 59z" />
<glyph unicode="&#xf8;" d="M205 307v355q0 112 104 208.5t221 96.5h197q50 0 80 -11l86 146q27 44 74 44q36 0 60 -25t24 -55q0 -28 -19 -60l-82 -140q103 -84 103 -204v-355q0 -113 -106.5 -209t-219.5 -96h-197q-37 0 -77 10l-88 -151q-25 -42 -73 -42q-32 0 -59 24t-27 60q0 27 50 114l51 85 q-63 63 -82.5 110.5t-19.5 94.5zM375 315q0 -36 20 -63l320 547h-164q-57 0 -88 -27l-57 -49q-31 -26 -31 -68v-340zM545 170h180q43 0 78 31l51 45q31 24 31 67v340q0 33 -21 64z" />
<glyph unicode="&#xf9;" d="M211 881q-2 33 23.5 58.5t60.5 25.5q34 0 58.5 -25t25.5 -59l22 -621q3 -90 103 -90h102l283 180v531q0 35 24.5 60.5t59.5 25.5t59.5 -25.5t24.5 -60.5v-797q0 -34 -25 -59t-59 -25t-59 25t-25 59v66l-146 -95q-86 -55 -174 -55h-78q-103 0 -177 72t-79 176zM385 1243 q0 33 23 59.5t59 26.5q19 0 37 -8l305 -141q47 -24 47 -76q0 -33 -23 -59.5t-59 -26.5q-19 0 -37 8l-305 141q-47 24 -47 76z" />
<glyph unicode="&#xfa;" d="M211 881q-2 33 23.5 58.5t60.5 25.5q34 0 58.5 -25t25.5 -59l22 -621q3 -90 103 -90h102l283 180v531q0 35 24.5 60.5t59.5 25.5t59.5 -25.5t24.5 -60.5v-797q0 -34 -25 -59t-59 -25t-59 25t-25 59v66l-146 -95q-86 -55 -174 -55h-78q-103 0 -177 72t-79 176zM508 1104 q0 54 47 76l305 141q18 8 37 8q36 0 59 -26.5t23 -59.5q0 -54 -47 -76l-305 -141q-18 -8 -37 -8q-36 0 -59 26.5t-23 59.5z" />
<glyph unicode="&#xfb;" d="M211 881q-2 33 23.5 58.5t60.5 25.5q34 0 58.5 -25t25.5 -59l22 -621q3 -90 103 -90h102l283 180v531q0 35 24.5 60.5t59.5 25.5t59.5 -25.5t24.5 -60.5v-797q0 -34 -25 -59t-59 -25t-59 25t-25 59v66l-146 -95q-86 -55 -174 -55h-78q-103 0 -177 72t-79 176zM231 1104 q0 54 47 76l306 141q20 8 36 8q20 0 37 -8l306 -141q47 -24 47 -76q0 -33 -23.5 -59.5t-59.5 -26.5q-18 0 -36 8l-271 125l-270 -125q-17 -8 -36 -8q-36 0 -59.5 26.5t-23.5 59.5z" />
<glyph unicode="&#xfc;" d="M203 1102v143q0 35 24.5 59.5t59.5 24.5t59.5 -24.5t24.5 -59.5v-143q0 -35 -24.5 -59.5t-59.5 -24.5t-59.5 24.5t-24.5 59.5zM209 881q-2 33 23.5 58.5t60.5 25.5q34 0 58.5 -25t25.5 -59l22 -621q3 -90 103 -90h102l283 180v531q0 35 24.5 60.5t59.5 25.5t59.5 -25.5 t24.5 -60.5v-797q0 -34 -25 -59t-59 -25t-59 25t-25 59v66l-146 -95q-86 -55 -174 -55h-78q-103 0 -177 72t-79 176zM881 1102v143q0 36 24.5 61t59.5 25q34 0 59 -25t25 -61v-143q0 -35 -24.5 -59.5t-59.5 -24.5q-36 0 -60 24.5t-24 59.5z" />
<glyph unicode="&#xfd;" d="M205 -276q0 35 24.5 59t59.5 24h180l115 267h-41q-57 0 -82 59l-252 586v162q0 35 24 59.5t58 24.5q35 0 60.5 -24.5t25.5 -59.5v-125l221 -512h59l228 510v129q0 33 25.5 58.5t60.5 25.5q34 0 59 -25t25 -59v-164l-453 -1024q-23 -55 -80 -55h-233q-35 0 -59.5 24 t-24.5 60zM506 1104q0 54 47 76l305 141q18 8 37 8q36 0 59 -26.5t23 -59.5q0 -54 -47 -76l-305 -141q-18 -8 -37 -8q-36 0 -59 26.5t-23 59.5z" />
<glyph unicode="&#xfe;" d="M207 -276v1521q0 35 25 59.5t61 24.5q34 0 59 -24.5t25 -59.5v-377q122 136 241 136h39q89 0 164 -66l140 -121q92 -80 92 -203v-262q0 -124 -99 -209l-137 -118q-68 -62 -172 -62h-37q-98 0 -166 68l-65 65v-372q0 -36 -24.5 -61t-59.5 -25t-60.5 25t-25.5 61zM377 375 q0 -39 37 -76l121 -121q45 -45 79 -45h43q31 0 66 31l131 115q33 26 33 71v271q0 40 -37 71l-141 121q-24 21 -52 21h-49q-28 0 -73 -46l-125 -124q-33 -33 -33 -74v-215z" />
<glyph unicode="&#xff;" d="M203 1102v143q0 35 24.5 59.5t59.5 24.5t59.5 -24.5t24.5 -59.5v-143q0 -35 -24.5 -59.5t-59.5 -24.5t-59.5 24.5t-24.5 59.5zM205 -276q0 35 24.5 59t59.5 24h180l115 267h-41q-57 0 -82 59l-252 586v162q0 35 24 59.5t58 24.5q35 0 60.5 -24.5t25.5 -59.5v-125 l221 -512h59l228 510v129q0 33 25.5 58.5t60.5 25.5q34 0 59 -25t25 -59v-164l-453 -1024q-23 -55 -80 -55h-233q-35 0 -59.5 24t-24.5 60zM881 1102v143q0 36 24.5 61t59.5 25q34 0 59 -25t25 -61v-143q0 -35 -24.5 -59.5t-59.5 -24.5q-36 0 -60 24.5t-24 59.5z" />
<glyph unicode="&#x152;" d="M205 662q0 93 37 167l186 377q63 123 201 123h344q35 0 59.5 -24.5t24.5 -59.5t-24.5 -59.5t-59.5 -24.5h-170v-411h170q35 0 59.5 -24.5t24.5 -59.5q0 -36 -24.5 -60t-59.5 -24h-172v-414h170q35 0 60.5 -24.5t25.5 -59.5q0 -34 -25.5 -59t-60.5 -25h-342 q-67 0 -120.5 35t-80.5 88l-186 373q-37 73 -37 166zM375 664q0 -55 24 -105l179 -358q14 -33 51 -33h4v993h-4q-36 0 -56 -39l-174 -354q-24 -53 -24 -104z" />
<glyph unicode="&#x153;" d="M76 307v355q0 107 100 206t211 99h27q64 0 108 -23t117 -94q2 4 4 4l70 55q69 56 139 56h25q74 0 153 -74l64 -60q67 -61 67 -182v-203q0 -34 -24.5 -59t-59.5 -25h-354v-49q0 -40 49 -92.5t98 -52.5h207q34 0 59 -24.5t25 -59.5q0 -34 -25 -59t-59 -25h-217 q-98 0 -155 55l-66 64q-77 -74 -120.5 -95.5t-104.5 -21.5h-27q-109 0 -210 100t-101 205zM246 315q0 -45 30 -75l50 -50q20 -20 61 -20h25q52 0 97.5 53.5t45.5 89.5v340q0 43 -29 72l-47 47q-26 27 -78 27q-58 0 -106.5 -50t-48.5 -94v-340zM725 532h270v117q0 42 -45 94 t-86 52q-42 0 -90.5 -44.5t-48.5 -88.5v-130z" />
<glyph unicode="&#x178;" d="M203 1466v143q0 35 24.5 59.5t59.5 24.5t59.5 -24.5t24.5 -59.5v-143q0 -35 -24.5 -59.5t-59.5 -24.5t-59.5 24.5t-24.5 59.5zM209 1065v178q0 36 24.5 61t59.5 25t60.5 -25.5t25.5 -60.5v-115l252 -325l256 323v117q0 35 25 60.5t59 25.5q33 0 58.5 -23.5t25.5 -62.5 v-176l-338 -430v-553q0 -35 -25 -59.5t-59 -24.5q-36 0 -61 24.5t-25 59.5v553zM881 1466v143q0 36 24.5 61t59.5 25q34 0 59 -25t25 -61v-143q0 -35 -24.5 -59.5t-59.5 -24.5q-36 0 -60 24.5t-24 59.5z" />
<glyph unicode="&#x2c6;" d="M238 1104q0 54 47 76l306 141q20 8 36 8q20 0 37 -8l306 -141q47 -24 47 -76q0 -33 -23.5 -59.5t-59.5 -26.5q-18 0 -36 8l-271 125l-270 -125q-17 -8 -36 -8q-36 0 -59.5 26.5t-23.5 59.5z" />
<glyph unicode="&#x2dc;" d="M246 1154q0 44 41 69l151 92q19 12 45 12h54q14 0 26 -4l262 -88h15l131 80q23 14 46 14q35 0 60 -27t25 -62q0 -44 -41 -69l-152 -92q-28 -14 -45 -14h-53q-8 0 -27 6l-256 86h-24l-127 -78q-23 -14 -47 -14q-34 0 -59 27t-25 62z" />
<glyph unicode="&#x2000;" horiz-adv-x="878" />
<glyph unicode="&#x2001;" horiz-adv-x="1757" />
<glyph unicode="&#x2002;" horiz-adv-x="878" />
<glyph unicode="&#x2003;" horiz-adv-x="1757" />
<glyph unicode="&#x2004;" horiz-adv-x="585" />
<glyph unicode="&#x2005;" horiz-adv-x="439" />
<glyph unicode="&#x2006;" horiz-adv-x="292" />
<glyph unicode="&#x2007;" horiz-adv-x="292" />
<glyph unicode="&#x2008;" horiz-adv-x="219" />
<glyph unicode="&#x2009;" horiz-adv-x="351" />
<glyph unicode="&#x200a;" horiz-adv-x="97" />
<glyph unicode="&#x2010;" d="M207 596v74q0 35 24.5 59.5t59.5 24.5h678q32 0 58 -23.5t26 -60.5v-74q0 -35 -24.5 -60.5t-59.5 -25.5h-678q-35 0 -59.5 25.5t-24.5 60.5z" />
<glyph unicode="&#x2011;" d="M207 596v74q0 35 24.5 59.5t59.5 24.5h678q32 0 58 -23.5t26 -60.5v-74q0 -35 -24.5 -60.5t-59.5 -25.5h-678q-35 0 -59.5 25.5t-24.5 60.5z" />
<glyph unicode="&#x2012;" d="M207 596v74q0 35 24.5 59.5t59.5 24.5h678q32 0 58 -23.5t26 -60.5v-74q0 -35 -24.5 -60.5t-59.5 -25.5h-678q-35 0 -59.5 25.5t-24.5 60.5z" />
<glyph unicode="&#x2013;" d="M309 668q0 34 25 59t59 25h449q35 0 60.5 -24.5t25.5 -59.5t-25.5 -59.5t-60.5 -24.5h-449q-34 0 -59 24.5t-25 59.5z" />
<glyph unicode="&#x2014;" d="M0 668q0 34 25 59t59 25h1067q35 0 60.5 -24.5t25.5 -59.5t-25.5 -59.5t-60.5 -24.5h-1067q-34 0 -59 24.5t-25 59.5z" />
<glyph unicode="&#x2018;" d="M354 809v436q0 35 24.5 59.5t59.5 24.5t59.5 -24.5t24.5 -59.5v-352h256q35 0 59.5 -25.5t24.5 -60.5q0 -34 -25 -59t-59 -25h-340q-35 0 -59.5 25.5t-24.5 60.5z" />
<glyph unicode="&#x2019;" d="M375 1245q0 34 25 59t59 25h340q35 0 59.5 -25t24.5 -61v-436q0 -35 -24.5 -59.5t-59.5 -24.5t-59.5 24.5t-24.5 59.5v352h-256q-35 0 -59.5 25.5t-24.5 60.5z" />
<glyph unicode="&#x201a;" d="M375 524q0 34 25 59t59 25h340q35 0 59.5 -25t24.5 -61v-436q0 -35 -24.5 -59.5t-59.5 -24.5t-59.5 24.5t-24.5 59.5v352h-256q-35 0 -59.5 25.5t-24.5 60.5z" />
<glyph unicode="&#x201c;" d="M229 809v436q0 35 24.5 59.5t59.5 24.5q36 0 60 -24.5t24 -59.5v-352h86q35 0 59.5 -25.5t24.5 -60.5q0 -34 -25 -59t-59 -25h-170q-35 0 -59.5 25.5t-24.5 60.5zM739 809v436q0 35 24.5 59.5t59.5 24.5t59.5 -24.5t24.5 -59.5v-352h86q35 0 59.5 -25.5t24.5 -60.5 q0 -34 -25 -59t-59 -25h-170q-35 0 -59.5 25.5t-24.5 60.5z" />
<glyph unicode="&#x201d;" d="M160 1245q0 34 25 59t59 25h170q35 0 59.5 -25t24.5 -61v-436q0 -35 -24.5 -59.5t-59.5 -24.5t-59.5 24.5t-24.5 59.5v352h-86q-35 0 -59.5 25.5t-24.5 60.5zM670 1245q0 34 25 59t59 25h170q35 0 59.5 -25t24.5 -61v-436q0 -35 -24.5 -59.5t-59.5 -24.5q-36 0 -60 24.5 t-24 59.5v352h-86q-35 0 -59.5 25.5t-24.5 60.5z" />
<glyph unicode="&#x201e;" d="M160 524q0 34 25 59t59 25h170q35 0 59.5 -25t24.5 -61v-436q0 -35 -24.5 -59.5t-59.5 -24.5t-59.5 24.5t-24.5 59.5v352h-86q-35 0 -59.5 25.5t-24.5 60.5zM670 524q0 34 25 59t59 25h170q35 0 59.5 -25t24.5 -61v-436q0 -35 -24.5 -59.5t-59.5 -24.5q-36 0 -60 24.5 t-24 59.5v352h-86q-35 0 -59.5 25.5t-24.5 60.5z" />
<glyph unicode="&#x2022;" d="M281 498v295q0 69 50 120.5t118 51.5h339q71 0 122 -51t51 -121v-291q0 -70 -50.5 -121t-117.5 -51h-349q-66 0 -114.5 50t-48.5 118z" />
<glyph unicode="&#x2026;" d="M121 86v72q1 35 26 60.5t60 25.5h80q35 0 60.5 -25t25.5 -59v-74q0 -35 -24.5 -59.5t-59.5 -24.5h-84q-35 0 -59.5 24.5t-24.5 59.5zM494 86v72q1 35 26 60.5t60 25.5h79q35 0 60.5 -25t25.5 -59v-74q0 -35 -24 -59.5t-59 -24.5h-84q-36 0 -60 24.5t-24 59.5zM866 86v72 q2 35 27 60.5t59 25.5h80q35 0 60.5 -25t25.5 -59v-74q0 -35 -24.5 -59.5t-59.5 -24.5h-84q-35 0 -59.5 24.5t-24.5 59.5z" />
<glyph unicode="&#x202f;" horiz-adv-x="351" />
<glyph unicode="&#x2039;" d="M461 575q0 20 8 37l141 306q24 47 76 47q33 0 59.5 -23.5t26.5 -59.5q0 -18 -8 -36l-125 -271l125 -270q8 -18 8 -36q0 -36 -26.5 -59.5t-59.5 -23.5q-54 0 -76 47l-141 306q-8 20 -8 36z" />
<glyph unicode="&#x203a;" d="M471 269q0 18 8 36l125 270l-125 271q-8 17 -8 36q0 36 26.5 59.5t59.5 23.5q54 0 76 -47l141 -306q8 -20 8 -37q0 -19 -8 -36l-141 -306q-24 -47 -76 -47q-33 0 -59.5 23.5t-26.5 59.5z" />
<glyph unicode="&#x205f;" horiz-adv-x="439" />
<glyph unicode="&#x20ac;" d="M88 525q0 40 23.5 63t63.5 23h22q-4 33 -4 52q0 27 4 63h-22q-40 0 -63.5 23t-23.5 63t23.5 63t63.5 23h89l140 281q23 47 57 83.5t82.5 54.5t121.5 18h291q37 0 61.5 -22t24.5 -63q0 -40 -25 -63t-61 -23h-286q-76 0 -92.5 -25.5t-124.5 -240.5h415q41 0 64 -23t23 -63 t-23 -63t-64 -23h-494q-9 -31 -9 -63q0 -22 7 -52h450q40 0 63 -23t23 -63t-23 -63t-63 -23h-369q99 -202 111.5 -225t34.5 -33t77 -10h280q37 0 61.5 -22t24.5 -64q0 -40 -25 -62.5t-61 -22.5h-301q-94 0 -154 38.5t-100 117.5l-141 283h-85q-40 0 -63.5 23t-23.5 63z" />
<glyph unicode="&#x2122;" d="M92 1257q0 31 19.5 51.5t52.5 20.5h410q33 0 52.5 -20.5t19.5 -51.5q0 -30 -19.5 -50.5t-52.5 -20.5h-133v-398q0 -32 -21 -52t-51 -20t-51 20t-21 52v398h-133q-33 0 -52.5 20.5t-19.5 50.5zM695 788v461q0 80 58 80q27 0 56 -22l162 -121l162 121q30 22 57 22 q58 0 58 -80v-461q0 -32 -21 -52t-51 -20t-51 20t-21 52v318l-90 -68q-20 -15 -43 -15q-22 0 -43 15l-90 68v-318q0 -32 -21 -52t-51 -20t-50.5 20t-20.5 52z" />
<glyph unicode="&#x25fc;" horiz-adv-x="965" d="M0 0v965h965v-965h-965z" />
</font>
</defs>
</svg>
